<?xml version="1.0" encoding="UTF-8"?>
<svg xmlns="http://www.w3.org/2000/svg" xmlns:xlink="http://www.w3.org/1999/xlink" width="px" height="0px" viewBox="0 0 1002 1058" version="1.1">
<g id="surface1">
<path style=" stroke:none;fill-rule:nonzero;fill:rgb(0%,0%,0%);fill-opacity:1;" d="M 453.75 1.351562 C 402.148438 3.75 347.398438 16.050781 301 35.75 C 292.199219 39.449219 272.898438 48.949219 265.101562 53.449219 L 258.949219 56.949219 L 253.5 54.199219 C 250.5 52.699219 246.601562 51.101562 244.851562 50.699219 C 241.648438 49.898438 241.550781 49.898438 238.898438 51.101562 C 230.949219 54.75 223.449219 65.949219 220 79.25 C 219.148438 82.550781 218.300781 85.398438 218.101562 85.550781 C 217.898438 85.75 215.398438 87.898438 212.5 90.351562 C 196.898438 103.648438 181.351562 120 168.75 136.398438 L 164.949219 141.351562 L 159.851562 142.601562 C 149.25 145.25 135.601562 151.851562 133.148438 155.601562 C 129.5 161.101562 129.898438 171.25 134.300781 184.648438 L 135.601562 188.601562 L 131.351562 197.398438 C 113.898438 233.5 101.648438 275.699219 95.800781 320 C 92.851562 342.300781 91.800781 360.449219 92.101562 383.398438 L 92.351562 400.050781 L 87.5 408.148438 C 72.550781 433.351562 55.101562 455.5 33.949219 476.25 C 24.800781 485.199219 17.75 491.449219 10.25 497.199219 C 7.800781 499.101562 5.351562 501.101562 4.898438 501.648438 C 3.648438 503 3.800781 505.199219 5.199219 506.851562 C 6.300781 508.148438 6.648438 508.25 9.550781 508.148438 C 19.648438 507.75 42.898438 502.050781 60.648438 495.601562 C 63.601562 494.5 66 493.699219 66 493.800781 C 66 494.25 60 503.75 55.050781 511.199219 C 50.75 517.601562 49.5 519.851562 49.5 521.148438 C 49.5 523.351562 51.199219 525 53.550781 525 C 57.851562 525 80.898438 517.898438 94.75 512.25 C 99.101562 510.5 102.800781 509.101562 102.898438 509.199219 C 103.351562 509.699219 105.550781 523.300781 106.449219 531.300781 C 111.5 576.898438 108.699219 641.148438 98.199219 719.75 C 95.851562 737.300781 93.601562 752.199219 89.5 777.5 C 87.601562 789.199219 85.25 804.5 84.300781 811.5 C 71.75 902.949219 76.800781 966.300781 100.101562 1008.648438 C 110.050781 1026.699219 123.898438 1041.648438 141.199219 1053.101562 C 143.601562 1054.699219 146.050781 1056 146.601562 1056 C 148.800781 1056 150.949219 1054.050781 151 1052 C 151 1051.351562 149.199219 1047.300781 147.050781 1043 C 143.300781 1035.601562 139.25 1026.550781 139.601562 1026.25 C 139.699219 1026.148438 141.199219 1027 143 1028.101562 C 150.199219 1032.550781 161.351562 1037 169.5 1038.699219 C 182.148438 1041.25 193.25 1041.101562 205.648438 1038.199219 C 212.101562 1036.648438 213.699219 1035.550781 213.699219 1032.75 C 213.699219 1030.648438 213.398438 1030.351562 207.949219 1026.5 C 199.898438 1020.851562 188.050781 1007.148438 180.851562 995.148438 C 175.800781 986.75 169.050781 972.648438 168.5 969.351562 C 166.75 958.601562 166.601562 915.898438 168.199219 897 C 171.800781 855.351562 179.5 819.898438 192 787.25 C 197.351562 773.300781 205.398438 756.050781 204.75 760 C 204.601562 760.949219 203.550781 766.898438 202.5 773.25 C 197.101562 804.898438 195.050781 827.25 194.648438 858.601562 C 194.351562 880.75 194.75 891.898438 196.300781 907 C 203 973.300781 226.25 1023.300781 265.199219 1055.148438 L 268.699219 1058 L 283.601562 1058 L 277.648438 1053.699219 C 256.449219 1038.25 240.300781 1018.648438 228.050781 993.5 C 215.25 967.300781 207.699219 937.449219 204.148438 899 C 203.050781 886.851562 202.898438 846.601562 203.898438 833.5 C 206.550781 799.148438 211.25 768.199219 218 740.050781 C 219.101562 735.550781 220 731.148438 220 730.300781 C 220 726.851562 215.300781 725.148438 212.851562 727.601562 C 211.449219 729 204.75 740.101562 200.101562 748.800781 C 179.648438 786.851562 165.949219 834.351562 160.800781 885.25 C 159.398438 898.898438 158.898438 907.601562 158.550781 923.25 L 158.25 938.75 L 156.898438 933.148438 C 154.050781 921.5 151.148438 903.199219 149.800781 888.5 C 147.300781 861.75 147.300781 829.75 149.800781 799.050781 C 150.199219 793.75 150.601562 788.5 150.601562 787.398438 C 150.648438 783.5 146.699219 781.601562 143.699219 784.148438 C 142.398438 785.25 142.351562 785.5 141.5 796 C 140.050781 813.351562 139.5 826.449219 139.5 845.5 C 139.5 870.050781 140.699219 888.851562 143.550781 908.25 C 151.101562 960.300781 169.550781 1002.699219 195.101562 1026.75 L 199.550781 1030.949219 L 197.148438 1031.351562 C 192.550781 1032.148438 177.601562 1031.800781 173 1030.851562 C 160.148438 1028.101562 147.851562 1022.25 137.800781 1014.101562 C 133.898438 1010.898438 131.800781 1010.449219 129.851562 1012.398438 C 128.949219 1013.351562 128.75 1014.050781 128.851562 1016.699219 C 128.898438 1020.699219 130.5 1026.898438 133 1032.898438 C 134 1035.398438 134.699219 1037.5 134.449219 1037.5 C 133.601562 1037.5 121.648438 1025.199219 118.398438 1021 C 103.898438 1002.199219 94.898438 980.101562 90.050781 951.300781 C 82.699219 908 85.050781 856.398438 98 777.75 C 108.351562 714.550781 113.949219 665.699219 116.550781 614.5 C 117.300781 599.949219 117.300781 562.300781 116.550781 550.75 C 115.449219 533.601562 113.25 515.648438 111.300781 508.148438 C 110.5 505.101562 110.351562 505.300781 115 503 C 119.101562 500.949219 126.699219 496.351562 129.101562 494.449219 L 130.898438 493 L 131.199219 496.601562 C 135.199219 545.601562 141.449219 581.5 152.800781 620.25 C 161.75 650.699219 175.300781 684.050781 186.898438 704.199219 C 189.949219 709.550781 192.351562 710.550781 195.398438 707.851562 C 196.050781 707.25 196.5 706.25 196.5 705.398438 C 196.5 704.601562 195.050781 699.199219 193.300781 693.351562 C 183.351562 660.5 177.101562 629 174.25 597.5 C 172.75 580.949219 172.800781 581 179.199219 599.75 C 198.949219 657.398438 214.300781 690.800781 228.050781 706.300781 C 239.648438 719.351562 268.5 738.5 307.75 759.101562 C 330.5 771.101562 331.25 771.351562 333.699219 768.449219 C 336.101562 765.601562 335.648438 764.648438 328.449219 757.101562 C 311.800781 739.75 294.050781 713.101562 279.300781 683.25 C 274.601562 673.75 272.101562 668.398438 272.699219 669.050781 C 272.800781 669.148438 275 671.949219 277.550781 675.25 C 296.101562 699.300781 319.398438 723.5 336.648438 736.75 C 340.25 739.5 340.5 739.851562 340.300781 741.25 C 338.398438 752.351562 339 787.25 341.300781 799.851562 C 341.601562 801.398438 341.199219 801.898438 330.949219 812.300781 C 325.050781 818.25 319.199219 824 317.949219 825.050781 L 315.601562 827 L 316.851562 822.101562 C 318.800781 814.199219 318.851562 813.300781 317.351562 811.800781 C 315.648438 810.101562 312.648438 810 311.148438 811.648438 C 308.800781 814.148438 301.398438 828.449219 297.050781 838.851562 C 294.898438 844 294.050781 845.398438 291.800781 847.648438 C 286.949219 852.5 285.101562 858.25 286.449219 864.148438 C 287.050781 866.601562 286.949219 867.199219 285.050781 874.199219 C 281.25 888.25 277.949219 904.851562 275.800781 921 C 274.398438 931.25 273 946 273 949.949219 C 273 951.351562 272.800781 952.5 272.550781 952.5 C 272.050781 952.5 268.699219 940.699219 266.25 930.25 C 259.101562 899.5 256.949219 862.351562 260.25 826.5 C 261.800781 810 265.101562 790.050781 268.5 776.351562 C 269.351562 773.101562 270 769.75 270 768.949219 C 270 765.851562 265.800781 763.898438 263.148438 765.75 C 260.300781 767.75 254.300781 797.398438 251.800781 822 C 249.75 842.148438 249.449219 875.351562 251.199219 892.398438 C 258 957.949219 280.648438 1009.5 321.050781 1051.148438 L 327.75 1058.050781 L 338.300781 1057.898438 L 348.800781 1057.75 L 347.398438 1050.5 C 343.351562 1029.550781 345.75 1017.699219 359.050781 993.398438 C 362.75 986.648438 371.300781 972.25 374.25 967.851562 L 375.851562 965.449219 L 376.949219 970.601562 C 381.25 991.351562 382.949219 1009 383 1034 C 383 1038.550781 383.148438 1045.800781 383.351562 1050.101562 L 383.648438 1058 L 392 1058 L 392 1056.601562 C 391.949219 1049.449219 390.949219 1009.601562 390.75 1005.75 C 389.75 989.449219 386.648438 972.5 379.148438 942.75 C 377.101562 934.5 374 920.449219 372.300781 911.5 L 369.148438 895.25 L 372.550781 893.949219 C 376.351562 892.449219 380.351562 890.300781 384.601562 887.449219 L 387.449219 885.5 L 389.050781 887.851562 C 393.648438 894.75 401 899.949219 408.601562 901.75 C 412.699219 902.699219 421.351562 902.699219 425.449219 901.75 C 430.101562 900.648438 434.75 898.199219 438.101562 895.050781 C 439.699219 893.601562 441.101562 892.449219 441.199219 892.550781 C 441.300781 892.648438 443.648438 901.851562 446.449219 913 C 458.050781 959.050781 469.050781 999.398438 471.851562 1006.25 C 474.648438 1013.199219 477.800781 1019.300781 485.648438 1032.800781 C 496.75 1051.949219 497.300781 1053.25 495.75 1056 C 495.351562 1056.699219 495.050781 1057.398438 495 1057.601562 C 495 1057.851562 498.648438 1058 503.050781 1058 L 511.148438 1058 L 510.800781 1037.101562 C 509.898438 979 508 913.75 504.75 827.25 C 502.75 774.449219 502.851562 776.101562 501.949219 775.199219 C 501.5 774.800781 498.601562 773.898438 495.449219 773.199219 C 479.199219 769.800781 461.449219 762.550781 447.601562 753.800781 C 428.601562 741.75 413.25 725.050781 403.75 706 C 401.351562 701.199219 398.5 694.601562 398.5 693.800781 C 398.5 693.449219 399.648438 692.898438 401.050781 692.601562 C 404.75 691.75 405 691.800781 405 693.449219 C 405 696.148438 407.449219 702.699219 410.101562 707.199219 C 417.550781 719.699219 434.800781 736.800781 450.699219 747.449219 C 468 759.050781 485.851562 766.648438 502.5 769.550781 C 507.800781 770.5 521.648438 770.351562 527.5 769.351562 C 541.5 766.949219 554.050781 761.25 567.398438 751.300781 C 573.898438 746.449219 587 733.5 592 727 C 602.300781 713.601562 611.148438 697.5 617.050781 681.199219 C 618.398438 677.550781 619.398438 675.550781 619.75 675.699219 C 620.101562 675.800781 621.398438 676.101562 622.699219 676.25 C 623.949219 676.449219 625 676.898438 625 677.199219 C 625 677.550781 624 680.351562 622.800781 683.5 C 612.699219 710.050781 600.75 728.949219 583.449219 745.75 C 569.949219 758.851562 556.199219 767.5 540.851562 772.5 C 536.550781 773.949219 534.300781 774.949219 533.949219 775.601562 C 533.601562 776.25 533.75 785.148438 534.449219 804.898438 C 536.898438 872.101562 537.800781 900.148438 539.550781 971.25 C 539.800781 982.800781 540.199219 1007.050781 540.351562 1025.101562 L 540.648438 1058 L 555.601562 1058 L 554.601562 1056.351562 C 549.398438 1047.898438 549.351562 1047.601562 550.949219 1042.949219 C 551.449219 1041.449219 553.148438 1037.351562 554.75 1033.75 C 559.25 1023.449219 562.351562 1015.449219 564.300781 1009.101562 C 569.300781 992.550781 585.449219 924.601562 592.800781 889.199219 L 594.148438 882.648438 L 598.148438 885.300781 C 603.601562 888.949219 608.601562 890.550781 615.699219 890.898438 C 619.101562 891.050781 622.148438 890.898438 623.949219 890.5 C 630.699219 889 638.351562 883.199219 643.648438 875.5 L 646.351562 871.550781 L 649.75 874.050781 C 655.050781 877.898438 662.449219 881 666.351562 881 C 667.75 881 667.75 880.898438 666.5 885.800781 C 664.550781 893.351562 663.5 898.601562 662 908.148438 C 661.148438 913.449219 659.25 924.148438 657.75 932 C 653.351562 954.949219 652.398438 961.949219 650.550781 984.25 C 650 990.851562 649.25 999.148438 648.949219 1002.75 C 648.5 1007.800781 648.5 1013.449219 649 1028.25 C 649.351562 1038.699219 649.550781 1049 649.449219 1051.101562 C 649.25 1054.550781 649.050781 1055.101562 647.75 1056.5 L 646.300781 1058 L 656.949219 1058 L 657.449219 1056.148438 C 658.148438 1053.648438 658.148438 1044.050781 657.449219 1026.398438 C 656.898438 1013 656.949219 1011.148438 658 998.148438 C 658.601562 990.5 659.25 983.601562 659.449219 982.851562 C 659.699219 981.699219 661.101562 985.398438 666.398438 1001.601562 C 676.601562 1032.699219 679.050781 1042.101562 678 1046.050781 C 677.398438 1048.300781 674.851562 1053.550781 672.949219 1056.351562 L 671.898438 1058 L 682.351562 1058 L 684.148438 1054.101562 C 688.148438 1045.5 688 1042.699219 682.449219 1023.300781 C 680.25 1015.5 664.148438 967.101562 662.550781 963.398438 L 661.550781 961 L 662.75 953.398438 C 663.398438 949.199219 665.199219 939.351562 666.699219 931.5 C 668.199219 923.648438 670 913.398438 670.75 908.75 C 671.449219 904.050781 672.949219 896.300781 674.050781 891.5 C 675.148438 886.699219 676.148438 882.25 676.300781 881.699219 C 676.449219 880.949219 677 880.5 678.148438 880.300781 C 680.75 879.800781 687.398438 876.398438 690.800781 873.800781 C 692.5 872.550781 695.25 870.050781 696.898438 868.300781 L 699.898438 865.101562 L 704.800781 865.5 C 712.800781 866.199219 720.800781 865.148438 727.5 862.5 C 730.949219 861.148438 736.800781 857.25 737.851562 855.648438 C 738.449219 854.75 738.75 854.601562 739.050781 855.101562 C 739.648438 856.148438 742.851562 872.949219 744.199219 882.25 C 750.699219 926.398438 748.351562 965.398438 737.148438 998.949219 C 730.699219 1018.25 720.75 1036.25 708.550781 1050.601562 C 706.449219 1053.101562 704.199219 1055.75 703.550781 1056.550781 L 702.351562 1058 L 713.898438 1058 L 716.648438 1054.648438 C 734.800781 1032.300781 746.949219 1004.800781 752.699219 973 C 760.050781 932.398438 756.351562 881.800781 742.449219 832.601562 C 741.101562 827.851562 740 823.851562 740 823.648438 C 740 822.300781 751.5 839.800781 757.148438 849.75 C 772.699219 877.199219 786.550781 913.050781 794.800781 947.101562 L 796.199219 952.949219 L 794.851562 960.851562 C 789.199219 993.699219 778.199219 1024.449219 762.300781 1051.648438 L 758.550781 1058.050781 L 763.648438 1057.898438 L 768.75 1057.75 L 771.148438 1053.5 C 775.5 1045.898438 783.851562 1028.449219 787.148438 1020 C 798.398438 991.398438 804.699219 962.898438 807 930.25 C 807.648438 920.601562 807.648438 894.101562 807 884.050781 C 803.199219 827.351562 787.449219 768.101562 761.050781 711 C 756 700.148438 750.101562 688.898438 748.898438 687.851562 C 746.398438 685.75 742 687.550781 742 690.75 C 742 691.550781 744.5 697.199219 747.898438 703.949219 C 772.199219 752.449219 789.699219 809.5 796 860.5 C 798.398438 879.949219 799.601562 906 798.75 920.199219 L 798.398438 926.648438 L 796.25 919.699219 C 789.199219 897.148438 779.75 873.800781 769.949219 855 C 759.5 834.949219 744.898438 813.648438 733.5 801.898438 C 730.300781 798.550781 729.5 798 728.101562 798 C 726.148438 798 723.5 800.300781 723.5 801.949219 C 723.5 802.5 724.5 805.601562 725.699219 808.851562 C 727.5 813.75 728.800781 817.648438 731.300781 825.449219 C 731.5 826.050781 731.398438 826.050781 730.648438 825.449219 C 721.851562 818.699219 703.199219 800.351562 694.601562 790 L 689 783.25 L 689 773.25 C 689 750.851562 686.648438 730.851562 682.199219 715.050781 L 680.851562 710.351562 L 683.550781 708.050781 C 714.699219 681.449219 735.199219 660.050781 744.050781 644.949219 C 752.148438 631 760.050781 599.25 766.5 554.75 C 767.898438 544.949219 771.449219 516.550781 771.550781 514.25 C 771.75 510.101562 774.5 530.75 775.800781 546 C 777.601562 567.300781 777.25 603.648438 775.050781 627.601562 C 774.101562 637.5 774.199219 639.050781 775.898438 640.300781 C 776.949219 641.101562 779.199219 641.199219 780.601562 640.449219 C 784.199219 638.5 792.699219 603.101562 796.699219 573 C 800.101562 547.800781 801.199219 526.949219 800.851562 496.25 C 800.5 469.648438 799.449219 453.800781 796.449219 430.101562 C 795.949219 425.898438 795.5 422.148438 795.5 421.800781 C 795.5 421.300781 797.101562 421.75 800.75 423.300781 C 807.5 426.101562 815.449219 428.648438 824.75 431 L 832.25 432.898438 L 833.398438 441.101562 C 841.949219 501.898438 876.648438 588.300781 930.449219 682.648438 C 942.300781 703.449219 946.398438 711.101562 953.699219 726.101562 C 976.851562 773.5 989.351562 816.648438 992 858.25 C 995.050781 906.199219 982.699219 951.550781 956.449219 988.601562 C 938.851562 1013.398438 913.75 1036.398438 885.949219 1053.148438 L 877.898438 1058 L 894.398438 1058 L 900.699219 1053.800781 C 914.351562 1044.601562 925.199219 1035.75 936.949219 1024.25 C 985.851562 976.25 1007 915.25 999.25 844.449219 C 993.800781 794.949219 974.898438 743.148438 940.25 682.75 C 893.25 600.851562 861.398438 527.300781 847.050781 467.449219 C 844.148438 455.351562 840.5 435.25 841.101562 434.75 C 841.199219 434.648438 843 434.898438 845.101562 435.300781 C 851.300781 436.351562 860.25 437.449219 867.75 438 C 878.148438 438.75 878.351562 438.75 880.050781 437.050781 C 882.800781 434.25 882.648438 434 870.398438 421.648438 C 864.351562 415.5 859.449219 410.398438 859.550781 410.300781 C 859.648438 410.199219 863.800781 410.601562 868.800781 411.25 C 891.25 414.101562 916.851562 414.25 920.5 411.601562 C 921.898438 410.550781 922.398438 407.75 921.550781 406.050781 C 921.25 405.550781 918.699219 403.898438 915.898438 402.449219 C 889.800781 389.101562 858.300781 365.25 833.199219 339.898438 L 824.148438 330.75 L 819.101562 315.648438 C 807.75 281.699219 796.898438 255.25 782 225.25 C 769.699219 200.5 760.050781 183.699219 745.949219 162.5 C 685.75 71.949219 608.75 18.800781 517.5 4.800781 C 497.601562 1.75 473.25 0.398438 453.75 1.351562 Z M 494.25 10.449219 C 546.449219 15.25 590.949219 30.550781 633 58.199219 C 700.101562 102.300781 756.148438 177.699219 796.101562 277.5 C 802 292.300781 809.75 313.5 809.25 313.5 C 809.148438 313.5 806.800781 310.648438 804.101562 307.101562 C 790.25 289.25 778.898438 271.300781 768.898438 251.5 C 766.449219 246.699219 764 242.351562 763.449219 241.851562 C 760.949219 239.75 757 241.800781 757 245.148438 C 757 247.101562 763.648438 260.601562 770.25 272 C 799.75 323.199219 843.050781 367.75 895.050781 400.300781 L 902.75 405.101562 L 893.25 404.800781 C 882.5 404.5 872.949219 403.550781 861.25 401.699219 C 856.851562 401 851.898438 400.300781 850.199219 400.148438 C 847.351562 399.898438 847.101562 399.949219 846.101562 401.25 C 845.5 402 845 403.25 845 403.949219 C 845 406.550781 849.949219 412.949219 859.449219 422.601562 C 862.851562 426.101562 865.601562 429.050781 865.449219 429.199219 C 865.351562 429.300781 862.550781 429.101562 859.25 428.699219 C 836.699219 426.148438 812.601562 419.898438 799.050781 413.101562 C 796.449219 411.800781 794.148438 410.398438 793.949219 410 C 793.75 409.601562 792.75 404.5 791.75 398.75 C 782.25 344.75 763.800781 285.75 739.550781 232.148438 C 729.148438 209.101562 728.5 208 725.351562 208 C 723.5 208 721.5 210 721.5 211.949219 C 721.5 212.75 723.449219 217.550781 725.800781 222.601562 C 779.148438 336.101562 801.050781 450.800781 789.949219 558.5 C 789.101562 567.101562 786.148438 588.550781 785.800781 588.898438 C 785.699219 588.949219 785.5 582 785.351562 573.398438 C 784.699219 541.75 781.550781 513.851562 775.898438 490.25 C 773.851562 481.5 773.25 480.550781 770.101562 480.5 C 767.351562 480.5 766.199219 482.148438 765.800781 486.550781 C 759.300781 558.398438 750 610.800781 739.5 635.101562 C 735.398438 644.550781 727.351562 654.648438 711 671 C 700.601562 681.398438 688.699219 692.351562 677.300781 701.898438 C 674.300781 704.449219 671.75 706.449219 671.648438 706.351562 C 671.550781 706.25 673.148438 702.699219 675.199219 698.449219 C 686.449219 675.050781 696.300781 643.851562 703 610.5 C 705.351562 598.75 708 582.449219 708 579.75 C 708 576.699219 703.25 574.75 701.101562 576.898438 C 700.601562 577.398438 698.648438 581.601562 696.800781 586.25 C 679.300781 629.601562 658.75 666.101562 637 692.449219 C 634.949219 694.898438 633.25 696.898438 633.148438 696.800781 C 633.101562 696.75 633.800781 694.101562 634.800781 690.949219 C 655 625.550781 666.25 557.101562 669.050781 482.5 C 669.699219 465.398438 669.398438 422.300781 668.550781 408 C 668.25 403.449219 667.898438 397.300781 667.699219 394.300781 L 667.351562 388.851562 L 671.050781 389.148438 C 673.101562 389.300781 675.050781 389.25 675.449219 389.050781 C 676.800781 388.199219 675.5 386.101562 671.050781 381.851562 L 666.550781 377.601562 L 665.5 366.898438 C 661.648438 327.648438 655.199219 288.199219 647.449219 256.800781 C 644 242.699219 643.75 242.050781 641.75 241.199219 C 639.800781 240.398438 637.300781 241.050781 636.5 242.5 C 635.648438 244.101562 635.898438 245.800781 638.949219 257.949219 C 642.5 272 646.75 292.699219 649.5 309.25 C 651.75 322.949219 655.101562 346.851562 654.898438 347.949219 C 654.800781 348.398438 653.199219 347.25 650.550781 344.800781 C 639.898438 335.050781 627.550781 326.800781 612.898438 319.75 C 605 315.949219 603.5 315.550781 601.75 316.699219 C 599.550781 318.148438 599.351562 319.101562 600.25 324.398438 C 600.75 327.25 601.199219 333.648438 601.351562 339.898438 L 601.648438 350.550781 L 600.449219 350.300781 C 598.449219 349.851562 590.101562 349.101562 583.5 348.75 C 575.101562 348.300781 560.898438 349.5 553.699219 351.300781 C 552.75 351.550781 552.601562 351.148438 551.550781 345.898438 C 547.75 326.601562 540.050781 301.898438 529.398438 275.101562 C 526.601562 268.148438 524.5 262.300781 524.699219 262.101562 C 524.898438 261.898438 532.898438 261.75 542.398438 261.75 C 556.398438 261.75 561.050781 261.949219 566.5 262.648438 C 582.898438 264.898438 594.199219 268.148438 606.898438 274.351562 C 613.5 277.550781 615.199219 277.949219 616.148438 276.449219 C 617.148438 274.851562 616.101562 273.300781 612.148438 270.648438 C 595.949219 259.898438 575.949219 254.148438 550.800781 253.050781 C 542.648438 252.699219 526.449219 253.101562 522.5 253.75 L 520.699219 254.050781 L 516.75 245.398438 C 508.300781 226.601562 494.851562 199.898438 484.949219 182.199219 C 481.050781 175.25 479.949219 174 477.601562 174 C 476.351562 174 474.5 175.398438 474 176.75 C 473.699219 177.550781 473.898438 180.148438 474.550781 184.351562 C 483.398438 242.101562 486.199219 303.351562 481.949219 349.25 C 481.398438 355.25 480.851562 360.300781 480.75 360.398438 C 480.5 360.648438 479.800781 358.949219 475.800781 348.550781 C 455.300781 295.25 441.5 231.898438 436.25 166.75 C 435.5 157.949219 435.300781 156.601562 434.351562 155.601562 C 432.550781 153.699219 428.949219 154.148438 427.75 156.449219 C 427.199219 157.601562 427.199219 159.101562 427.800781 166.800781 C 432.949219 231.75 446.648438 295.5 467.25 349.949219 C 474.300781 368.601562 482.898438 387.851562 490.300781 401.648438 C 492.648438 406 494.449219 409.699219 494.300781 409.851562 C 493.949219 410.199219 488.351562 408.300781 481.800781 405.648438 C 472.699219 402 471.75 402.800781 471.75 414.351562 C 471.75 421.351562 471.648438 422 470.851562 422 C 470.398438 422 466.648438 420.898438 462.601562 419.550781 C 450.449219 415.550781 438.199219 409.25 428.449219 401.898438 C 425.949219 400.050781 423.398438 398.351562 422.75 398.199219 C 421.148438 397.800781 418.601562 399.25 418.199219 400.800781 C 417.351562 404.148438 419.699219 417.898438 422.699219 427 C 423.601562 429.898438 424.351562 432.300781 424.25 432.398438 C 424.199219 432.449219 421.351562 429.648438 417.949219 426.101562 C 403.949219 411.648438 394.351562 397.648438 383.550781 375.949219 C 362.949219 334.5 349.800781 280.199219 344.75 215.75 C 343.898438 205 343 184.800781 343 177.101562 C 343 172.300781 342.898438 171.851562 341.75 170.75 C 340.148438 169.101562 337.550781 169.050781 336.101562 170.601562 C 334.898438 171.949219 333.449219 177.5 330.550781 191.601562 C 324.351562 221.949219 321.449219 248.550781 320.75 281.25 L 320.5 293.699219 L 313.101562 296.25 C 304.101562 299.398438 301.101562 300.699219 292.75 304.851562 C 281.351562 310.601562 271.449219 316.949219 261.601562 324.851562 C 258.75 327.148438 256.398438 329 256.351562 329 C 255.898438 329 257.550781 304.699219 258.800781 292.648438 C 259.101562 289.800781 259.050781 289.5 257.851562 288.300781 C 255.648438 286.101562 251.5 286.851562 250.851562 289.601562 C 250.050781 292.949219 248.75 309.300781 248 325.5 L 247.449219 337.199219 L 245.101562 339.898438 C 240.25 345.449219 239.5 346.550781 239.5 348.449219 C 239.5 349.449219 239.851562 350.75 240.25 351.351562 C 241.300781 352.851562 244 353.648438 245.699219 353 C 246.449219 352.75 247.148438 352.5 247.300781 352.5 C 247.398438 352.5 247.5 356.148438 247.5 360.601562 C 247.5 381.5 249.550781 413.351562 252.5 439.550781 L 253.550781 448.300781 L 251 455.800781 C 248.199219 464.148438 247.851562 466.148438 249.648438 463.75 C 250.25 462.898438 251.648438 461.25 252.75 460.050781 L 254.75 457.851562 L 255.351562 461.550781 C 255.648438 463.601562 255.949219 466.550781 255.949219 468.101562 C 256 469.699219 256.300781 471.851562 256.699219 472.851562 C 257.101562 473.898438 257.550781 475.851562 257.75 477.25 C 257.949219 478.601562 259.101562 485.25 260.300781 492 C 271.851562 555.550781 290.699219 616.050781 317.300781 675 C 322.851562 687.351562 335.449219 712.550781 341.898438 724.25 C 344.648438 729.199219 346.800781 733.351562 346.699219 733.449219 C 346.601562 733.550781 343.851562 731.5 340.648438 728.898438 C 314.449219 707.699219 285.199219 674.050781 260.5 636.75 C 258.5 633.699219 256.550781 630.949219 256.101562 630.601562 C 255.648438 630.300781 254.449219 630 253.449219 630 C 250.949219 630 249.300781 631.949219 249.648438 634.5 C 249.949219 636.800781 255.5 651.550781 260.300781 662.851562 C 265.351562 674.800781 278.300781 700.800781 284.300781 711 C 292.101562 724.300781 303.398438 741.101562 309.601562 748.601562 C 310.699219 749.949219 311.449219 751 311.300781 751 C 310.75 751 306.050781 748.550781 296.75 743.351562 C 258.699219 722.199219 237.25 706.300781 228.398438 692.75 C 217.300781 675.699219 204.75 647.101562 190.101562 605.449219 C 185.5 592.351562 176.601562 565.050781 174 556 C 172.75 551.75 171.300781 550 168.949219 550 C 166.449219 550 165.148438 551.800781 164.75 555.800781 C 164.199219 560.800781 164.851562 586.25 165.75 596.75 C 167.351562 614.699219 170.449219 635.851562 173.949219 652.351562 C 174.75 656.148438 175.398438 659.300781 175.300781 659.351562 C 174.800781 659.851562 166.25 635.398438 162.148438 622 C 139.648438 547.699219 133 465.101562 142.550781 378.5 C 145.5 351.5 151.25 318.550781 157.800781 290.949219 C 160.851562 278 160.949219 277.25 159.5 275.75 C 158.25 274.398438 155.75 274.101562 154.050781 275 C 152.800781 275.648438 152.351562 276.949219 149.800781 287.75 C 140.898438 325.398438 134.851562 363.699219 132 400.5 C 130.398438 421.449219 129.949219 434.5 130.050781 459.25 L 130.101562 482.699219 L 128.199219 484.398438 C 119.851562 491.601562 99.898438 501.75 80.550781 508.601562 C 77.101562 509.851562 64.050781 514 63.648438 514 C 63.601562 514 65.300781 511.25 67.449219 507.851562 C 74.601562 496.550781 78.550781 488.75 78.648438 485.699219 C 78.699219 483.601562 76.898438 481.5 74.949219 481.5 C 74.199219 481.5 69.898438 482.949219 65.398438 484.699219 C 60.949219 486.449219 53.300781 489.148438 48.5 490.75 C 39.75 493.550781 24.550781 497.699219 24.148438 497.351562 C 24.050781 497.25 25.5 495.851562 27.351562 494.199219 C 32.800781 489.5 48.601562 473.800781 54.699219 467 C 91.300781 426.300781 118 376.851562 130.949219 325.75 C 132.898438 318.148438 132.949219 316.398438 131.199219 315.050781 C 128.148438 312.648438 125.050781 314.300781 124.050781 318.851562 C 122.898438 324.050781 118.5 339.050781 115.898438 346.75 C 111.5 359.800781 101.351562 384 100.601562 383.25 C 100.449219 383.148438 100.398438 378.101562 100.449219 372.148438 C 100.800781 315.300781 114.699219 252.351562 137.300781 204.550781 L 140.25 198.351562 L 142.75 202.550781 C 148.398438 212.101562 159.101562 224.550781 164.050781 227.25 C 166.050781 228.300781 167.550781 228.699219 170.199219 228.898438 C 174.449219 229.148438 175.949219 228.449219 183.300781 223 C 185.898438 221.050781 188 219.601562 188 219.75 C 188 219.898438 187.648438 220.851562 187.199219 221.898438 C 185.101562 226.898438 179.851562 241.101562 177.601562 248 C 173.101562 261.800781 170.5 272.800781 169.300781 283.101562 C 168.25 291.949219 168.800781 292.949219 176.199219 295.300781 C 178.351562 295.949219 183.300781 297.101562 187.148438 297.75 C 196.800781 299.449219 202.601562 301.050781 210.5 304.25 C 219.601562 307.949219 221.699219 307.898438 223.550781 303.75 C 227.300781 295.25 232.199219 236.550781 233 190.398438 C 233 190.199219 233.300781 190.148438 233.699219 190.300781 C 234.601562 190.648438 234.851562 191.898438 237.449219 207.25 C 241.949219 233.949219 243.898438 249.898438 244.300781 262.5 C 244.449219 267.300781 244.800781 272 245.101562 272.898438 C 245.75 275.050781 248.25 276.25 250.300781 275.5 C 253.550781 274.25 266.898438 257.699219 276.75 242.75 C 282.050781 234.648438 289.25 222.699219 289.699219 221.199219 C 290.101562 219.949219 286.851562 208.101562 283.449219 198.199219 C 279.199219 185.898438 274.898438 176.648438 270.351562 169.800781 L 268.351562 166.851562 L 275 160.351562 C 294.898438 141.101562 314.5 127.199219 337.601562 116 C 363.648438 103.398438 389 96.550781 421 93.398438 C 430.148438 92.5 468.101562 92.5 478.25 93.398438 C 526.300781 97.648438 564 110.351562 592.5 131.898438 C 598.800781 136.648438 607.449219 144.75 612.148438 150.25 C 616.898438 155.800781 620.050781 157.050781 624.300781 154.949219 C 626.648438 153.851562 628.25 151.699219 628.75 149 C 629.101562 147 626.851562 140.199219 622.699219 130.75 C 619.601562 123.648438 607.800781 100.351562 605.949219 97.699219 C 603.75 94.5 597.050781 88.449219 591.398438 84.648438 C 564.351562 66.300781 520.949219 52.851562 474.25 48.300781 C 448.800781 45.800781 418.148438 46 396.25 48.800781 C 363.648438 52.949219 329.101562 64.800781 299.550781 81.898438 L 294.351562 84.898438 L 289.851562 80.199219 C 284.898438 75 278.449219 69.601562 272 65.25 C 269.648438 63.648438 267.699219 62.25 267.648438 62.050781 C 267.5 61.699219 278.050781 55.898438 286.75 51.601562 C 320.851562 34.699219 361.601562 22.101562 406 14.75 C 420.75 12.351562 432.851562 11 451 9.800781 C 456.5 9.449219 488.398438 9.949219 494.25 10.449219 Z M 216.648438 104.648438 C 216.5 108.351562 216.648438 114.949219 217 119.398438 L 217.601562 127.5 L 216 129.351562 C 213 132.75 211.800781 136.148438 211.601562 141.550781 L 211.398438 146.351562 L 207.050781 144.949219 C 199 142.398438 187.75 140.5 180.101562 140.5 L 176.449219 140.5 L 177.398438 139.101562 C 180.550781 134.75 190.398438 123.550781 198 115.800781 C 205.851562 107.800781 216.101562 98 216.699219 98 C 216.800781 98 216.800781 101 216.648438 104.648438 Z M 235.300781 130.300781 C 237.851562 131.5 240.449219 134.199219 241.648438 136.949219 C 243.800781 141.851562 242.351562 148.699219 238.398438 152.300781 C 235.75 154.699219 233.648438 155.5 230.148438 155.5 C 222.898438 155.449219 217.75 149.949219 217.800781 142.25 C 217.800781 139.449219 218.050781 138.25 219.101562 136.199219 C 222.351562 130 229.351562 127.5 235.300781 130.300781 Z M 218.75 158.199219 C 219.949219 159.148438 221.800781 160.199219 222.75 160.550781 C 224.050781 161.050781 224.449219 161.398438 224.199219 162 C 221.949219 167.050781 221.300781 174.148438 222.699219 178.101562 C 223.5 180.25 223.050781 180.898438 219.851562 182.25 C 216.050781 183.851562 210.800781 182.949219 207.550781 180.148438 C 200.601562 174.199219 201.75 162.25 209.648438 158.148438 C 213.800781 156.050781 215.898438 156.050781 218.75 158.199219 Z M 246.648438 160.398438 C 250.800781 162.601562 253 166.5 253 171.550781 C 253 175.75 252.199219 178.148438 249.898438 180.75 C 247.300781 183.699219 244.449219 185 240.699219 185 C 230.398438 184.949219 224.699219 173.449219 230.5 164.351562 C 231.648438 162.5 232.25 162.050781 233.851562 161.75 C 234.898438 161.601562 237 160.800781 238.5 160 C 241.648438 158.300781 242.898438 158.398438 246.648438 160.398438 Z M 497.5 224.75 C 504.601562 239.25 511.648438 254.5 511.398438 254.800781 C 511.300781 254.898438 508.300781 255.5 504.800781 256.199219 C 497.449219 257.648438 496 258.5 496 261.351562 C 496 263.25 497.851562 265.5 499.449219 265.5 C 499.949219 265.5 503.050781 265.050781 506.25 264.5 C 515.800781 262.851562 515 262.550781 517.648438 268.851562 C 523.449219 282.648438 528.949219 297.398438 533.398438 311 C 536.300781 319.949219 540.101562 333.199219 540.800781 336.699219 C 541.101562 338.398438 541.050781 338.449219 539.148438 338.75 C 528.5 340.601562 518.949219 344.75 511.949219 350.550781 C 509.148438 352.898438 508.949219 353.199219 509.101562 354.898438 C 509.199219 356.351562 509.5 356.851562 510.5 357.148438 C 511.601562 357.550781 512.449219 357.199219 516.148438 354.75 C 518.550781 353.199219 522.398438 351.050781 524.699219 349.949219 C 528.601562 348.148438 542.050781 343.351562 542.351562 343.699219 C 542.550781 343.898438 544.550781 353.648438 544.398438 353.75 C 544.300781 353.851562 542.25 354.699219 539.75 355.75 C 527.648438 360.699219 516.199219 368.800781 509.550781 377.199219 C 505.351562 382.449219 506.050781 382.699219 513.949219 378.699219 C 522.648438 374.300781 523.601562 375.699219 518.199219 384.898438 C 515.25 389.898438 514.851562 390.898438 514.601562 393.75 C 514.351562 397.101562 514.851562 398.5 516.351562 398.5 C 516.75 398.5 518.898438 396.75 521.148438 394.601562 C 525.699219 390.300781 531.898438 385.25 532.25 385.601562 C 532.398438 385.699219 532.148438 387.550781 531.75 389.699219 C 531.050781 393.300781 530.800781 396.5 531.148438 396.5 C 531.25 396.5 532.398438 396.148438 533.699219 395.699219 C 536.898438 394.601562 542 394.898438 543.851562 396.300781 C 547.25 398.800781 547.199219 402.25 543.699219 406 C 540.898438 409 536.648438 411 532.75 411.148438 L 529.898438 411.25 L 530.199219 416.75 C 530.949219 428.699219 533.101562 440.25 536 447.148438 C 539.25 455 546.351562 463.699219 553.351562 468.449219 C 557.449219 471.199219 564.351562 474.5 566 474.5 C 567.898438 474.5 569.5 472.800781 569.5 470.800781 C 569.5 468.75 568.949219 468.300781 563 465.398438 C 549.75 458.898438 541.800781 447.148438 539.300781 430.25 C 538.851562 427.199219 538.351562 424.050781 538.25 423.199219 C 538 421.75 538.25 421.5 541.851562 418.898438 C 545.601562 416.25 550.050781 413.5 550.601562 413.5 C 550.75 413.5 551.050781 414.351562 551.199219 415.351562 C 551.851562 418.898438 554.050781 424.851562 555.800781 427.800781 C 560.699219 436 567.699219 439.949219 574.601562 438.550781 C 577.449219 437.949219 579.5 436.851562 578.898438 436.25 C 578.75 436.050781 576.949219 435.699219 574.898438 435.449219 C 567.648438 434.550781 562.449219 430.601562 559 423.398438 C 557.898438 421.101562 556.648438 417.601562 556.25 415.550781 C 555.800781 413.550781 555.398438 411.648438 555.351562 411.398438 C 555.25 410.851562 562.148438 408 566.601562 406.75 L 569.398438 405.949219 L 569.75 402.851562 C 569.949219 401.148438 570.601562 398.550781 571.25 397.148438 C 574.75 389.398438 582.851562 391.898438 585.050781 401.300781 L 585.648438 403.851562 L 590.398438 404.148438 C 594.199219 404.398438 600.851562 405.351562 601.351562 405.699219 C 601.398438 405.75 601.699219 407.851562 602 410.398438 C 602.699219 416.148438 602.101562 420.601562 599.949219 425.851562 C 599.101562 427.898438 598.5 429.648438 598.648438 429.800781 C 599.101562 430.25 602.5 425.851562 603.75 423.199219 C 605.449219 419.601562 605.949219 416.949219 606 411.601562 C 606 407 606 406.949219 607.148438 407.25 C 609.699219 408.050781 617.449219 411.199219 620.050781 412.601562 L 622.851562 414.050781 L 623.199219 418.148438 C 624.601562 436.101562 616.148438 455.5 604 461.949219 C 602.25 462.898438 600.699219 464.101562 600.398438 464.800781 C 599.648438 466.449219 600.398438 468.5 602.101562 469.449219 C 603.300781 470.148438 603.699219 470.101562 606.199219 469.351562 C 616.351562 466.148438 626.050781 454.25 630.199219 439.949219 C 635.148438 422.851562 632.148438 400.949219 622 379.601562 C 620.398438 376.25 619.199219 373.5 619.351562 373.5 C 620.101562 373.5 629.050781 378.5 633.75 381.550781 C 641 386.25 646.199219 391.5 648.75 396.648438 L 650.648438 400.5 L 650.351562 408.648438 C 650.148438 413.101562 649.550781 419.898438 649 423.75 C 647.449219 434.601562 647.648438 436.050781 650.449219 434.5 C 651.601562 433.898438 656.351562 427.75 658.648438 423.851562 L 660.398438 420.949219 L 660.75 424.25 C 661.25 428.898438 660.699219 488.601562 660.050781 498.5 C 659.25 511.148438 658.550781 519.699219 657.449219 532 L 656.449219 543.25 L 654.648438 545.898438 C 648.199219 555.449219 628.601562 576.351562 616.5 586.699219 C 604.601562 596.851562 588.851562 608 575.851562 615.449219 C 547.898438 631.5 508.898438 645.25 484.25 647.699219 C 461.601562 650 440.199219 650 418.5 647.75 C 377.800781 643.5 343.648438 633.300781 321.5 618.800781 C 303.300781 606.851562 293.550781 593.300781 290.75 576 C 289.050781 565.25 284.550781 549.351562 279.5 536.199219 C 277.25 530.398438 275.800781 525.550781 274.199219 518.25 C 271.949219 508.148438 268 488.050781 268 486.75 C 268 486.300781 269.351562 487.101562 271.398438 488.75 C 273.25 490.25 275 491.5 275.300781 491.5 C 275.949219 491.5 279.5 487 280.699219 484.648438 C 282.101562 481.851562 281.800781 481 277.550781 476.800781 C 270.898438 470.199219 269.699219 465.75 272.5 458.300781 C 273.949219 454.550781 282.25 443.449219 288.75 436.601562 C 291.449219 433.75 293.699219 431.550781 293.75 431.601562 C 293.800781 431.699219 293.550781 434.101562 293.199219 437 C 292.851562 439.898438 292.550781 444.351562 292.550781 446.949219 C 292.5 451.199219 292.601562 451.550781 293.398438 451.25 C 298.949219 448.800781 302.5 448.449219 305.851562 450 C 310 451.851562 310.449219 455.898438 307 460.101562 C 304.898438 462.601562 299.949219 465 296 465.351562 L 292.949219 465.648438 L 293.25 467.699219 C 295.101562 480.050781 298.300781 488.851562 304.050781 497.351562 C 310.351562 506.601562 318.949219 513.351562 328.75 516.601562 C 331.75 517.550781 333.300781 517.75 339.25 517.75 C 343.101562 517.75 346.851562 517.601562 347.601562 517.351562 C 350.449219 516.550781 351.148438 512.300781 348.75 510.699219 C 347.75 510.050781 346.949219 510 343.800781 510.449219 C 335.699219 511.601562 328.25 509.550781 320.648438 504.199219 C 314.851562 500.101562 308.050781 491.101562 305 483.5 L 303.398438 479.449219 L 304.25 477.101562 C 306.398438 471.300781 313.699219 459 314.949219 459 C 315.199219 459 315.648438 460.050781 315.949219 461.351562 C 317.648438 468.101562 323.25 475.851562 328.601562 478.75 C 330.898438 480 331.800781 480.199219 335.25 480.25 C 339.148438 480.25 341.949219 479.449219 342.351562 478.25 C 342.449219 477.898438 340.949219 477.449219 338.75 477.148438 C 331.449219 476.101562 326.101562 472.148438 322.800781 465.351562 C 321.050781 461.800781 319.5 456.800781 319.5 454.75 C 319.5 453.300781 324.101562 449.898438 329.75 447.199219 L 334.300781 445.050781 L 334.898438 442.148438 C 335.648438 438.550781 337 436.300781 339.050781 435.25 C 342.25 433.550781 346.398438 435.800781 348.75 440.5 L 349.949219 442.851562 L 354.351562 443.199219 C 356.75 443.351562 360 443.800781 361.5 444.148438 C 364.101562 444.75 364.25 444.851562 364.898438 447 C 365.351562 448.398438 365.648438 451.800781 365.699219 455.75 C 365.75 462.148438 365.699219 462.300781 363.949219 466.648438 C 362.949219 469.050781 362.300781 471.148438 362.550781 471.300781 C 362.800781 471.398438 364 470.148438 365.25 468.449219 C 368.898438 463.5 370.601562 456.050781 369.601562 449.75 C 369.300781 448.101562 369.148438 446.699219 369.25 446.601562 C 369.75 446.050781 380.300781 452.25 380.75 453.351562 C 380.851562 453.699219 381.199219 456.5 381.550781 459.601562 C 382.898438 473.199219 379.601562 486.199219 371.949219 497.300781 C 369.050781 501.449219 368.800781 503.351562 370.800781 504.949219 C 372.75 506.5 373.949219 506.25 376.199219 503.851562 C 380.898438 498.898438 386.101562 487.699219 388.050781 478.5 C 389.351562 472.300781 389.601562 460.601562 388.550781 454.5 C 386.949219 445 383.75 435 379.949219 427.398438 C 378.851562 425.25 378 423.398438 378 423.25 C 378 423.101562 378.550781 423.351562 379.25 423.800781 C 381.050781 424.949219 380.851562 424 378.5 420.300781 C 377.398438 418.550781 376.5 417 376.5 416.851562 C 376.5 416.699219 377.699219 415.898438 379.148438 415.101562 C 382.148438 413.398438 384.5 410.949219 384.5 409.5 C 384.5 407.148438 379.25 404.75 368.25 402 C 363.300781 400.75 360.75 399.898438 360.75 399.449219 C 360.75 398.398438 363.75 396.949219 366.75 396.648438 C 368.25 396.5 369.5 396.199219 369.5 395.949219 C 369.5 395.050781 366.300781 393.398438 362.648438 392.449219 C 359.601562 391.648438 357.050781 391.398438 350.648438 391.351562 L 342.550781 391.25 L 341.550781 387.5 C 341 385.449219 340.398438 383.050781 340.199219 382.199219 L 339.898438 380.699219 L 343.851562 381.050781 C 346 381.25 351.5 381.550781 356.101562 381.699219 L 364.449219 382.050781 L 365.25 380.800781 C 366.199219 379.398438 365.699219 377.898438 363.949219 377 C 362.25 376.050781 352.5 375 345.398438 375 C 339.351562 375 338.550781 374.898438 338.300781 374.101562 C 336.648438 368.800781 332.949219 345.351562 331.5 331.5 C 330.398438 320.75 329.148438 299.699219 329.550781 299.25 C 329.949219 298.898438 345.449219 295 346.550781 295 C 347.199219 295 347.648438 296.300781 348.699219 300.851562 C 356.601562 335.050781 368.050781 366.550781 381.25 390.25 C 386.148438 399.101562 395.148438 412.648438 400.800781 419.699219 C 409.101562 430.050781 419.851562 440.449219 430.148438 448.101562 C 433.148438 450.300781 434.5 451 435.800781 451 C 437.898438 451 440 449.148438 440 447.351562 C 440 446.648438 438.648438 443.351562 437.050781 439.949219 C 433.300781 432.101562 430.851562 425.449219 429 418.101562 C 428.199219 414.898438 427.550781 412.25 427.648438 412.199219 C 427.699219 412.148438 429.800781 413.351562 432.25 414.851562 C 443.648438 421.851562 458.75 428 471.25 430.75 C 478.199219 432.25 479.601562 432.050781 480.699219 429.398438 C 481.25 428 481.25 427.101562 480.699219 424 C 480.351562 421.949219 480.050781 418.851562 480 417.148438 L 480 414.050781 L 482.398438 415.050781 C 490.050781 418.351562 502.148438 420.949219 505.050781 419.898438 C 508.398438 418.75 508.300781 415.898438 504.800781 410.148438 C 500.601562 403.25 495.449219 393.5 491.050781 384.148438 C 487.101562 375.851562 487 375.5 487.449219 373.398438 C 488.25 369.800781 489.949219 356.351562 490.75 347 C 493.199219 318.25 493 282.898438 490.25 247 C 489.199219 233.550781 486.75 209.648438 485.75 203 C 485.398438 200.699219 489.101562 207.550781 497.5 224.75 Z M 337.75 232.550781 C 339.199219 247.25 341.699219 265.050781 344.199219 278.75 C 346.050781 288.851562 346.050781 289 343.449219 289 C 342.148438 289 332.898438 290.601562 330.300781 291.25 L 328.898438 291.648438 L 329.199219 280.449219 C 330 254.699219 331.449219 237.648438 334.601562 217.25 L 335.699219 210.25 L 336.101562 215 C 336.300781 217.601562 337.050781 225.5 337.75 232.550781 Z M 321.5 312.75 C 322.601562 331.550781 324.898438 350.398438 328.25 367.5 C 329.699219 374.898438 332.851562 388.5 333.800781 391.601562 C 334 392.300781 333.75 392.5 332.648438 392.5 C 331.851562 392.5 328.050781 393.050781 324.199219 393.75 C 312.648438 395.75 302.5 399.550781 293.101562 405.398438 C 290.800781 406.851562 288.75 408 288.5 408 C 287.199219 408 282.449219 398.800781 280.75 392.851562 C 280.300781 391.25 279.449219 389.5 278.851562 389 C 277.398438 387.601562 274.75 387.699219 273.25 389.199219 C 270.351562 392.101562 264.648438 406.300781 261.300781 419 C 259.300781 426.398438 259.398438 426.550781 258.25 412 C 256.75 392.300781 256.449219 385.800781 256.148438 364.75 L 255.851562 343.199219 L 260.300781 339.050781 C 272.300781 327.800781 286.449219 318.050781 302.148438 310.199219 C 310.898438 305.800781 320.699219 301.800781 320.851562 302.648438 C 320.898438 302.949219 321.199219 307.5 321.5 312.75 Z M 624.949219 336.050781 C 627.699219 337.800781 632.398438 341 635.351562 343.199219 C 641.050781 347.398438 654.851562 360.699219 656.101562 363.25 C 656.550781 364.050781 657 366.148438 657.101562 367.851562 L 657.300781 371 L 655.050781 369.648438 C 641.699219 361.699219 626.851562 355.648438 613.898438 352.75 L 610 351.898438 L 610 343.550781 C 610 338.898438 609.851562 333.398438 609.648438 331.25 L 609.351562 327.351562 L 614.648438 330.148438 C 617.550781 331.648438 622.199219 334.351562 624.949219 336.050781 Z M 276.300781 405.101562 C 276.75 406 278.101562 408.25 279.351562 410.101562 L 281.550781 413.449219 L 278.898438 415.800781 C 277.449219 417.101562 274.5 420 272.398438 422.148438 C 270.199219 424.398438 268.5 425.800781 268.5 425.351562 C 268.5 423.5 274.75 403.5 275.351562 403.5 C 275.398438 403.5 275.851562 404.25 276.300781 405.101562 Z M 652.5 571.949219 C 649.351562 593.949219 645.25 615.851562 640.25 637.398438 C 637.699219 648.449219 632.550781 668.5 632.148438 668.949219 C 631.800781 669.398438 622.25 667.351562 620.199219 666.449219 C 614.851562 664.101562 603.550781 661.699219 591.75 660.449219 C 585 659.75 582.601562 660 577.898438 661.949219 L 574.25 663.5 L 568.5 662.300781 C 558.601562 660.25 554.351562 658.050781 551.148438 653.351562 C 549.300781 650.601562 547.648438 645.851562 547.199219 642 L 546.898438 639.25 L 552.550781 636.800781 C 577.351562 626.101562 601.851562 610.75 622.601562 592.898438 C 630.851562 585.800781 643.351562 573.351562 649.5 566.148438 C 651.851562 563.398438 653.800781 561.199219 653.898438 561.25 C 654 561.351562 653.351562 566.148438 652.5 571.949219 Z M 306.75 618.75 C 329.5 637.648438 367.25 650.75 414.25 655.949219 C 429.550781 657.648438 441.050781 658.148438 457.898438 657.851562 L 473.550781 657.550781 L 473.199219 658.648438 C 470.898438 666.25 462.800781 672 448.351562 676.199219 L 444.050781 677.398438 L 441 676.449219 C 439.300781 675.949219 436.800781 675.5 435.398438 675.5 C 433.101562 675.5 421 678.351562 414.25 680.5 C 412.601562 681.050781 408 682.148438 404 683 C 388.699219 686.25 381.300781 688.601562 371.25 693.5 C 360.050781 698.898438 352.699219 705.101562 348.851562 712.351562 L 347.148438 715.601562 L 345.351562 712.398438 C 338.449219 700.050781 323.601562 668.5 315.25 648.5 C 311.898438 640.5 302.5 616.300781 302.5 615.699219 C 302.5 615.25 303 615.601562 306.75 618.75 Z M 690.449219 627.300781 C 685.550781 647.449219 677.398438 672.648438 671.5 685.75 L 670.050781 688.949219 L 666.898438 685.800781 C 665.148438 684.101562 662.5 681.851562 660.949219 680.800781 L 658.101562 678.949219 L 662 673.101562 C 670.699219 660 680.101562 643.351562 687.898438 627.398438 C 690.25 622.550781 692.300781 618.601562 692.398438 618.699219 C 692.449219 618.800781 691.601562 622.648438 690.449219 627.300781 Z M 539.351562 646.949219 C 543.199219 663.101562 551.800781 669.148438 575.199219 672.199219 C 578.5 672.648438 581.25 673.101562 581.398438 673.199219 C 581.699219 673.5 578.699219 678.949219 574.949219 684.898438 C 563.101562 703.75 547.300781 718.949219 533.5 724.75 C 526.550781 727.648438 523.351562 728.25 514.5 728.199219 C 505.398438 728.148438 499.648438 727.25 491.25 724.449219 C 475.300781 719.148438 457.148438 706.648438 443.851562 691.800781 L 439.851562 687.300781 L 447.050781 685.449219 C 458.300781 682.550781 465.800781 679.351562 471.898438 674.75 C 477 670.898438 480.800781 665.050781 482 659.148438 L 482.550781 656.550781 L 485.398438 656.25 C 497.949219 654.800781 519.648438 649.351562 533.75 644.050781 C 535.949219 643.199219 537.851562 642.550781 538 642.5 C 538.148438 642.5 538.75 644.5 539.351562 646.949219 Z M 656.25 688.25 C 659.449219 690.5 663.800781 695 665 697.300781 C 665.648438 698.449219 665.5 698.949219 663.300781 703.351562 C 662 706 658.800781 711.699219 656.199219 716 C 653.601562 720.351562 651.5 724.25 651.5 724.699219 C 651.5 725.800781 652.449219 727.601562 653.449219 728.351562 C 655.449219 729.898438 657.199219 729.148438 663.601562 724.199219 C 667 721.5 670.5 718.699219 671.449219 717.898438 C 672.351562 717.101562 673.300781 716.601562 673.5 716.851562 C 674 717.351562 676.25 726.851562 677.199219 732.5 C 679.199219 744.050781 680.648438 766.550781 680.101562 777.601562 L 679.898438 782 L 676.5 784.25 C 668.550781 789.550781 654.699219 795.199219 642.351562 798.199219 C 632.101562 800.699219 609.648438 803.851562 608.699219 802.898438 C 608.351562 802.5 610.851562 795.148438 612.050781 793.050781 C 614.050781 789.699219 612.949219 786.300781 609.75 785.699219 C 607.351562 785.25 605.851562 786.351562 604.050781 789.898438 C 601.800781 794.351562 600.199219 800.101562 599 808 C 598.398438 812 597.800781 815.351562 597.699219 815.449219 C 597.601562 815.550781 594.050781 816.5 589.800781 817.550781 C 577.398438 820.601562 560.949219 823.101562 548.199219 823.800781 L 542.601562 824.148438 L 542.300781 817.949219 C 541.550781 801.398438 541 780.800781 541.351562 780.5 C 541.601562 780.300781 543.898438 779.398438 546.5 778.5 C 555.949219 775.148438 569.199219 767.550781 578.851562 759.898438 C 584.25 755.648438 594.800781 745.199219 599.550781 739.449219 C 606.351562 731.199219 614.199219 719.601562 617.949219 712.101562 C 618.550781 710.949219 619.101562 710 619.199219 710 C 619.300781 710 619.25 711 619.148438 712.199219 C 618.898438 714.101562 619.050781 714.601562 620.148438 715.699219 C 622.449219 718 624.351562 717.550781 628.851562 713.550781 C 634.550781 708.5 645.101562 696.648438 650.5 689.148438 C 651.75 687.449219 652.851562 686 652.949219 686 C 653.050781 686 654.550781 687 656.25 688.25 Z M 393.800781 702.25 C 403.699219 725.898438 421.851562 746.75 444.898438 760.851562 C 451.949219 765.199219 465.800781 771.898438 473 774.449219 C 479.949219 776.898438 489.898438 779.75 493.101562 780.25 L 495.449219 780.601562 L 495.699219 783.699219 C 495.851562 785.351562 496.199219 793.5 496.5 801.75 C 496.75 810 497.148438 818.949219 497.300781 821.601562 L 497.601562 826.5 L 491.699219 826.5 C 475.148438 826.5 447.898438 823.5 435.300781 820.351562 L 432.898438 819.699219 L 431.5 816 C 428.898438 808.800781 424.699219 801.75 421.050781 798.25 C 418.949219 796.300781 416.351562 796.25 414.699219 798.199219 C 412.851562 800.351562 413.148438 801.898438 416.199219 805.699219 C 419.449219 809.800781 421.851562 814 420.898438 814 C 419 814 405.800781 812.25 399.5 811.199219 C 384.75 808.699219 365.898438 803.449219 354.25 798.601562 L 349.75 796.75 L 349.148438 791.5 C 347.601562 777.800781 347.300781 762.601562 348.300781 749.351562 L 348.601562 745.449219 L 349.949219 746.351562 C 353.851562 748.949219 358.898438 751.5 360.148438 751.5 C 360.949219 751.5 362.050781 751 362.75 750.25 C 364.851562 748.199219 364.449219 746.5 360.199219 739.300781 C 358.148438 735.75 355.550781 731.199219 354.449219 729.199219 L 352.449219 725.601562 L 353.5 723.050781 C 357.648438 712.449219 363.199219 706.898438 375.699219 700.949219 C 378.601562 699.601562 383.148438 697.699219 385.851562 696.800781 C 390.199219 695.300781 390.800781 695.199219 391.101562 695.949219 C 391.300781 696.398438 392.5 699.199219 393.800781 702.25 Z M 686.5 793.898438 C 687.898438 795.648438 689 797.148438 688.898438 797.25 C 687.898438 798.148438 681.25 802.050781 676.898438 804.300781 C 662.199219 811.800781 645.101562 817.101562 627 819.699219 C 621.449219 820.5 606.101562 821.75 605.800781 821.449219 C 605.601562 821.25 606.949219 812.398438 607.199219 812.148438 C 607.300781 812.050781 609.898438 811.75 613.050781 811.5 C 640.648438 809.101562 665.101562 802.050781 680.25 792.050781 C 681.898438 790.949219 683.398438 790.199219 683.550781 790.398438 C 683.75 790.601562 685.050781 792.148438 686.5 793.898438 Z M 710.699219 819.601562 C 714.300781 822.949219 720.449219 828.351562 724.300781 831.601562 C 731.851562 837.851562 733.5 839.851562 733.851562 843.148438 C 734.300781 847.398438 730.101562 852.25 724 854.550781 C 717.550781 857 710.449219 857.449219 698.898438 856.199219 C 696.101562 855.898438 696 855.898438 694.648438 857.550781 C 693.851562 858.5 691.351562 861.199219 689 863.550781 C 685.550781 867.050781 683.898438 868.25 680.300781 870.050781 L 675.851562 872.25 L 670.050781 872.25 C 664.351562 872.25 664.148438 872.199219 660.449219 870.398438 C 656.5 868.449219 653.050781 866 648.898438 862.148438 C 644.949219 858.5 642.851562 859.199219 639.851562 865.101562 C 635.898438 872.898438 629.601562 879.449219 624.148438 881.5 C 619 883.398438 610.699219 882.5 604.898438 879.398438 C 601.550781 877.648438 596.5 872.949219 596.5 871.601562 C 596.5 871.148438 597.851562 863.75 599.449219 855.25 C 601.050781 846.699219 602.800781 837.550781 603.25 834.851562 L 604.101562 830 L 607.699219 830 C 619.300781 830 637.851562 827.148438 651.898438 823.199219 C 666.351562 819.148438 682.5 812 692 805.449219 L 694.75 803.550781 L 699.449219 808.550781 C 702 811.300781 707.050781 816.25 710.699219 819.601562 Z M 353.101562 807.449219 C 370.648438 814.351562 395.351562 820.101562 416.699219 822.199219 C 420.800781 822.601562 424.300781 823.148438 424.5 823.351562 C 424.699219 823.550781 425.25 825.300781 425.648438 827.199219 L 426.449219 830.648438 L 420.351562 830.300781 C 397.851562 829.101562 373.601562 824.601562 357.648438 818.699219 C 351.101562 816.300781 343.5 812.851562 343.5 812.351562 C 343.5 811.898438 348.949219 806 349.351562 806 C 349.398438 806 351.101562 806.648438 353.101562 807.449219 Z M 341.398438 821.199219 C 354.851562 827.949219 375.75 833.75 397.101562 836.75 C 404.75 837.800781 418.351562 839 423.25 839 C 425.449219 839 427.550781 839.199219 427.898438 839.449219 C 428.851562 840.050781 438.101562 878.300781 437.800781 880.351562 C 437.449219 882.75 434.398438 887.199219 431.550781 889.449219 C 427.199219 892.851562 424.25 893.699219 417 893.699219 C 409.699219 893.699219 407.050781 892.898438 402.050781 889.25 C 399 887 395.101562 882.050781 393.699219 878.699219 C 391.5 873.351562 389.449219 873.199219 383 877.949219 C 372.300781 885.851562 363.25 889.101562 355.199219 887.949219 C 349.050781 887.101562 342.75 882.550781 339.398438 876.648438 C 337.449219 873.199219 335.699219 872.300781 332.449219 873.148438 C 331.25 873.449219 326.648438 873.699219 322.25 873.648438 C 315.75 873.648438 313.550781 873.449219 310.449219 872.601562 C 302.699219 870.5 296.300781 866.148438 294.949219 862.148438 C 293.648438 858.101562 295.398438 855.699219 307.101562 846.148438 C 314.949219 839.648438 323.398438 832.101562 331.25 824.398438 C 334.300781 821.449219 336.800781 819 336.898438 819 C 336.949219 819 339 820 341.398438 821.199219 Z M 596 826 C 596 826.800781 595.601562 829.148438 594.75 833.300781 C 594.601562 834.050781 594 834.449219 592.898438 834.648438 C 592 834.800781 587.949219 835.601562 583.949219 836.449219 C 572.5 838.800781 563.75 839.898438 546.148438 841.25 L 543 841.449219 L 543 833.050781 L 544.648438 832.800781 C 545.5 832.648438 548.300781 832.398438 550.75 832.25 C 562.050781 831.5 579.199219 828.949219 589 826.550781 C 596.101562 824.800781 596 824.800781 596 826 Z M 439 829.949219 C 450.101562 832.351562 470.398438 834.449219 486.5 834.949219 L 497.75 835.25 L 497.898438 839.449219 L 498.050781 843.648438 L 485.398438 843.351562 C 472.699219 843.050781 464.199219 842.351562 451.25 840.449219 C 444.101562 839.398438 437.5 838.148438 437.101562 837.75 C 436.898438 837.550781 435.050781 830.101562 435 829.351562 C 435 829.101562 435.398438 829.050781 435.898438 829.199219 C 436.351562 829.351562 437.75 829.699219 439 829.949219 Z M 592.75 844.601562 C 592.601562 845.25 591.25 852.148438 589.75 860 C 588.25 867.851562 586.398438 877.449219 585.601562 881.351562 L 584.148438 888.449219 L 581.199219 892.050781 C 573.550781 901.398438 565.351562 905.300781 556.898438 903.550781 C 553.601562 902.851562 549 900.648438 546.550781 898.648438 L 544.898438 897.199219 L 544.449219 884 C 544.25 876.699219 543.949219 866.101562 543.75 860.398438 L 543.449219 850.101562 L 547.851562 849.800781 C 562.449219 848.75 578.75 846.550781 588.75 844.300781 C 592.949219 843.351562 593.050781 843.351562 592.75 844.601562 Z M 452 849.199219 C 462.949219 850.800781 475.351562 851.851562 488.300781 852.300781 L 498.300781 852.648438 L 498.898438 868.449219 C 499.25 877.148438 499.648438 888.75 499.851562 894.25 L 500.148438 904.25 L 497.101562 901.351562 C 493.101562 897.550781 491.898438 897.601562 487.800781 901.648438 C 484.800781 904.550781 479.648438 907.75 475.949219 909 C 473.449219 909.851562 471.949219 910.050781 469.25 909.898438 C 464.101562 909.550781 460.648438 907.75 455.75 902.800781 L 451.699219 898.75 L 450.300781 893 C 441.449219 856.699219 439.5 848.5 439.5 848 C 439.5 847.550781 440.101562 847.449219 441.398438 847.648438 C 442.398438 847.800781 447.199219 848.5 452 849.199219 Z M 297.898438 876.949219 C 299 877.75 299 877.851562 298.5 883.75 C 298.199219 887.050781 297.851562 896.25 297.648438 904.25 C 296.550781 956.898438 306.851562 1001.101562 328.199219 1035.699219 C 331.601562 1041.148438 336 1047.550781 337.601562 1049.351562 C 338.601562 1050.398438 340.300781 1056.351562 339.800781 1056.851562 C 339.351562 1057.351562 320.25 1037.851562 315.398438 1032 C 302.648438 1016.5 293.300781 1002 284.550781 984 L 280.75 976.25 L 280.898438 967.5 C 281.300781 940.351562 285.351562 908.648438 291.800781 882.75 C 294.101562 873.550781 293.75 874.300781 295.398438 875.25 C 296.199219 875.75 297.300781 876.5 297.898438 876.949219 Z M 313.25 882 C 315.199219 882.351562 320.25 882.5 324.550781 882.398438 L 332.351562 882.25 L 334.351562 884.75 C 340.199219 892.148438 347.699219 896.25 356.351562 896.851562 C 359.550781 897.101562 360.550781 897.351562 360.699219 897.949219 C 360.851562 898.398438 362.199219 905.300781 363.699219 913.300781 C 365.25 921.351562 367.949219 933.699219 369.699219 940.800781 L 372.898438 953.699219 L 367.050781 963 C 351.898438 986.800781 342.949219 1003.800781 339.550781 1015.398438 C 338.199219 1019.898438 337 1027 337 1030.449219 L 337 1033.25 L 335.800781 1031.5 C 333.199219 1027.601562 327.851562 1017.398438 324.800781 1010.550781 C 310.949219 979.101562 304.601562 939.949219 306.449219 897.449219 C 306.75 889.601562 307.199219 882.699219 307.351562 882.050781 C 307.550781 881.199219 307.898438 881 308.699219 881.199219 C 309.25 881.351562 311.351562 881.699219 313.25 882 Z M 577.300781 919.800781 C 572.800781 939.851562 569.050781 955.699219 564.699219 973.199219 C 557.199219 1003.101562 555.550781 1008.949219 551.898438 1018.101562 C 549.949219 1023.050781 548.300781 1026.949219 548.199219 1026.898438 C 548.101562 1026.800781 547.800781 1014.351562 547.550781 999.25 C 547.25 984.101562 546.75 963.648438 546.5 953.75 C 545.398438 917.101562 545.148438 908.75 545.300781 908.550781 C 545.398438 908.449219 546.800781 908.949219 548.398438 909.648438 C 554.601562 912.449219 561.851562 913.199219 567.648438 911.699219 C 571.050781 910.851562 576.5 908.199219 578.75 906.300781 C 579.601562 905.648438 580.300781 905.148438 580.398438 905.25 C 580.5 905.300781 579.101562 911.851562 577.300781 919.800781 Z M 494.648438 910.648438 C 495.800781 911.601562 497.550781 912.800781 498.550781 913.449219 L 500.398438 914.5 L 500.699219 921.648438 C 501.449219 939.25 502.898438 997.101562 503.25 1024.5 L 503.550781 1046.75 L 502.449219 1044.75 C 501.851562 1043.648438 497.949219 1036.800781 493.75 1029.5 C 485.898438 1015.851562 482.050781 1008.5 479.800781 1003 C 477.601562 997.601562 456 917.75 456 915.050781 C 456 914.699219 457.050781 915 458.5 915.75 C 468.050781 920.601562 480.199219 918.851562 489.5 911.300781 C 491 910.050781 492.300781 909.050781 492.398438 909.050781 C 492.5 909 493.5 909.75 494.648438 910.648438 Z M 494.648438 910.648438 "/>
<path style=" stroke:none;fill-rule:nonzero;fill:rgb(0%,0%,0%);fill-opacity:1;" d="M 683.75 228.75 C 683.050781 229.398438 682.5 230.550781 682.5 231.300781 C 682.5 232.050781 684.050781 235.398438 686.050781 238.800781 C 700 263.199219 710.898438 294.148438 717.75 328.75 C 720.648438 343.351562 724 367.199219 723.398438 369 C 723.300781 369.300781 720.148438 366.148438 716.398438 361.898438 C 712.648438 357.699219 706.25 350.949219 702.101562 346.851562 C 695.398438 340.25 694.449219 339.5 692.898438 339.5 C 691 339.5 689.148438 340.898438 688.75 342.648438 C 688.398438 344.148438 685.5 380.449219 685.5 383.148438 C 685.5 385.949219 686.851562 387.5 689.300781 387.5 C 691.800781 387.5 692.898438 386.75 693.449219 384.601562 C 693.699219 383.601562 694.398438 376.050781 695.050781 367.800781 L 696.199219 352.851562 L 701.75 358.550781 C 704.75 361.699219 711.5 369.148438 716.699219 375.148438 C 721.949219 381.199219 726.699219 386.300781 727.449219 386.601562 C 729.148438 387.25 730.898438 386.601562 732.148438 384.898438 C 733.148438 383.550781 733.148438 383.449219 732.351562 372.648438 C 728.351562 321.5 714.449219 271.898438 693.800781 235.300781 C 691.648438 231.550781 689.550781 228.300781 689 228 C 687.351562 227.101562 685.050781 227.398438 683.75 228.75 Z M 683.75 228.75 "/>
<path style=" stroke:none;fill-rule:nonzero;fill:rgb(0%,0%,0%);fill-opacity:1;" d="M 195.601562 310.75 C 192.898438 314.148438 188.148438 341.050781 186.398438 362.25 C 185.648438 371.949219 185.648438 400.851562 186.449219 411.75 C 188.199219 436.601562 193.25 468.949219 195.75 471.898438 C 197.199219 473.550781 200.050781 473.699219 201.550781 472.148438 C 203.148438 470.550781 208.648438 457.25 212.050781 446.75 C 215.851562 435 216.550781 433 216.949219 433 C 217.101562 433 220.75 439.25 225 446.898438 C 229.25 454.5 233.25 461.25 233.851562 461.851562 C 234.949219 463 237.050781 463.351562 238.75 462.699219 C 239.898438 462.25 241.148438 459.601562 240.800781 458.199219 C 240.351562 456.398438 220.5 421.351562 219.398438 420.351562 C 218.25 419.398438 215.949219 419.25 214.449219 420 C 212.75 420.949219 208.25 430.800781 205.25 440.25 C 202.050781 450.25 200.5 454.648438 200.199219 454.398438 C 199.898438 454.050781 198.050781 442.148438 197 433.398438 C 192 392.5 193.449219 352.898438 201.25 320.648438 C 203.449219 311.449219 202.949219 309.5 198.300781 309.5 C 197.050781 309.5 196.300781 309.851562 195.601562 310.75 Z M 195.601562 310.75 "/>
<path style=" stroke:none;fill-rule:nonzero;fill:rgb(0%,0%,0%);fill-opacity:1;" d="M 485.851562 553 C 478.449219 553.550781 470.601562 554.851562 465.550781 556.351562 C 456.550781 558.949219 448.75 563.851562 446 568.601562 C 444.75 570.851562 444.5 571.75 444.5 574.800781 C 444.5 579.75 446.050781 585.300781 449.300781 592 C 451.800781 597.050781 452.601562 598.25 456.199219 601.75 C 460.648438 606.101562 463.800781 608.199219 469.851562 610.75 C 475.148438 613 476.449219 613.25 476.851562 612.199219 C 477.199219 611.25 477.148438 611.199219 471.25 607.398438 C 465.398438 603.699219 459 597.101562 456.800781 592.550781 C 452.550781 583.699219 453.398438 573.800781 458.800781 569.050781 C 466.550781 562.25 485.601562 558.25 502.199219 559.949219 C 510.148438 560.75 514.949219 563.351562 516.800781 567.851562 C 517.800781 570.199219 517.699219 578.851562 516.550781 584.25 C 514.898438 592.25 512.050781 597.398438 505.300781 604.398438 C 500.699219 609.199219 500.648438 610.5 505.199219 607.75 C 513.050781 603.050781 517.601562 597.800781 522 588.398438 C 524.800781 582.398438 525.648438 578.351562 525.351562 572.5 C 524.949219 564.148438 522.300781 559.699219 515.898438 556.449219 C 510 553.449219 497.898438 552.101562 485.851562 553 Z M 485.851562 553 "/>
<path style=" stroke:none;fill-rule:nonzero;fill:rgb(0%,0%,0%);fill-opacity:1;" d="M 809.800781 640.050781 C 807.699219 641.699219 808.050781 643.5 812.949219 655.648438 C 865.550781 786.449219 883.5 891.449219 865.699219 964.101562 C 859.398438 989.898438 849.25 1011 834.351562 1029.449219 C 826.199219 1039.5 817.5 1046.898438 804.101562 1055.050781 L 799.300781 1058 L 815.351562 1058 L 819.300781 1055.199219 C 824.699219 1051.351562 828 1048.550781 833 1043.699219 C 837.101562 1039.699219 837.5 1039.449219 845.148438 1036.050781 C 901.25 1011.300781 927.949219 966.300781 924.949219 901.5 C 923.851562 878.199219 919.5 854.699219 911.050781 827 C 896.351562 778.648438 867.101562 718.648438 831.5 663.75 C 822.949219 650.648438 816.601562 641.398438 815.199219 640.101562 C 813.648438 638.699219 811.550781 638.699219 809.800781 640.050781 Z M 838.148438 690.351562 C 850.851562 711.5 859.101562 726.601562 869.699219 748 C 896.199219 801.449219 911.199219 847.699219 915.800781 890 C 917 900.851562 917 920.851562 915.800781 930.25 C 910.398438 972.898438 890.351562 1002.648438 853.351562 1022.699219 C 850.949219 1024.050781 848.851562 1025.050781 848.75 1024.949219 C 848.648438 1024.851562 850.25 1022.050781 852.300781 1018.75 C 878 977.449219 886.25 922.101562 877.25 851.5 C 871.050781 803 855.75 745 833.050781 684.101562 C 832.199219 681.851562 831.601562 680 831.699219 680 C 831.800781 680 834.699219 684.648438 838.148438 690.351562 Z M 838.148438 690.351562 "/>
<path style=" stroke:none;fill-rule:nonzero;fill:rgb(0%,0%,0%);fill-opacity:1;" d="M 516 799.648438 C 515.050781 799.949219 513.351562 801.148438 512.199219 802.25 C 505.449219 809.050781 510.949219 820.300781 520.601562 819.398438 C 527.050781 818.75 531.300781 811.5 528.800781 805.398438 C 527.800781 803.101562 524.550781 800.199219 522.148438 799.550781 C 519.851562 798.898438 518.300781 798.898438 516 799.648438 Z M 523.300781 805.199219 C 524.75 806.648438 525 807.25 525 809.25 C 525 811.25 524.75 811.851562 523.300781 813.300781 C 521.851562 814.75 521.25 815 519.300781 815 C 513.550781 815 511.351562 807.398438 516.199219 804.449219 C 518.699219 802.898438 521.300781 803.199219 523.300781 805.199219 Z M 523.300781 805.199219 "/>
<path style=" stroke:none;fill-rule:nonzero;fill:rgb(0%,0%,0%);fill-opacity:1;" d="M 519.851562 879.699219 C 515.5 880.898438 512.5 884.851562 512.5 889.5 C 512.5 895.148438 516.851562 899.5 522.5 899.5 C 525.800781 899.5 527.851562 898.601562 530.050781 896.148438 C 533.851562 891.949219 533.550781 886 529.300781 882.101562 C 528.101562 881 526.398438 879.949219 525.449219 879.75 C 524.5 879.601562 523.398438 879.351562 523 879.25 C 522.601562 879.148438 521.148438 879.351562 519.851562 879.699219 Z M 526.601562 885.449219 C 528.898438 888.050781 529.050781 890.550781 527 893.148438 C 523.800781 897.199219 517.550781 895.199219 516.699219 889.949219 C 516.398438 888 518 885.199219 520 884.101562 C 522 883.050781 525.050781 883.699219 526.601562 885.449219 Z M 526.601562 885.449219 "/>
<path style=" stroke:none;fill-rule:nonzero;fill:rgb(0%,0%,0%);fill-opacity:1;" d="M 520 960.050781 C 516.101562 961.648438 513.550781 965.398438 513.5 969.648438 C 513.5 972.800781 514.398438 974.851562 516.898438 977.101562 C 524.25 983.75 535.800781 977 533.449219 967.398438 C 532.101562 961.601562 525.351562 957.949219 520 960.050781 Z M 525.75 964.199219 C 528.949219 965.550781 530.398438 969.601562 528.699219 972.5 C 526 977.050781 519.5 976.101562 517.949219 970.949219 C 517.199219 968.5 518.5 965.699219 521 964.398438 C 523.101562 963.300781 523.550781 963.300781 525.75 964.199219 Z M 525.75 964.199219 "/>
<path style=" stroke:none;fill-rule:nonzero;fill:rgb(0%,0%,0%);fill-opacity:1;" d="M 523.75 1043 C 517.550781 1044.398438 514.300781 1049.949219 516.050781 1056.148438 L 516.550781 1058 L 522.449219 1058 L 521.300781 1056.75 C 518.351562 1053.550781 520.050781 1048.25 524.398438 1047.148438 C 525.050781 1047 526.5 1047.148438 527.550781 1047.449219 C 531.351562 1048.601562 532.75 1053.449219 530.199219 1056.449219 L 528.898438 1058 L 531.75 1058 C 534.5 1058 534.550781 1057.949219 535.300781 1056.25 C 538.148438 1049.351562 531.199219 1041.300781 523.75 1043 Z M 523.75 1043 "/>
</g>
</svg>
