<?xml version="1.0" standalone="no"?>
<!DOCTYPE svg PUBLIC "-//W3C//DTD SVG 20010904//EN"
 "http://www.w3.org/TR/2001/REC-SVG-20010904/DTD/svg10.dtd">
<svg version="1.0" xmlns="http://www.w3.org/2000/svg"
 width="200.000000pt" height="200.000000pt" viewBox="0 0 2206.000000 2032.000000"
 preserveAspectRatio="xMidYMid meet">

<g transform="translate(0.000000,2032.000000) scale(0.100000,-0.100000)"
fill="#000000" stroke="none">
<path d="M11195 20231 c-24 -10 -76 -56 -126 -110 l-86 -92 -144 16 c-513 55
-1103 41 -1684 -41 -790 -111 -1574 -329 -2224 -619 -1326 -591 -2323 -1514
-2997 -2774 -425 -795 -713 -1760 -823 -2756 -40 -355 -44 -452 -47 -922 l-2
-472 -62 -198 c-404 -1280 -894 -2314 -1345 -2838 -83 -96 -88 -107 -83 -175
4 -52 9 -65 38 -95 38 -40 96 -59 143 -50 42 9 215 125 457 306 353 264 570
450 862 738 109 107 200 193 202 190 6 -6 34 -190 50 -334 31 -272 40 -485 40
-925 -1 -695 -42 -1307 -145 -2185 -31 -269 -47 -367 -75 -470 -146 -543 -396
-1150 -601 -1459 -287 -432 -800 -839 -1457 -1157 -285 -137 -572 -247 -837
-319 -120 -33 -149 -52 -149 -97 0 -60 44 -87 265 -161 751 -253 1589 -253
2262 -1 72 27 134 49 137 49 3 0 6 -89 6 -197 1 -1400 324 -2282 1045 -2855
105 -83 254 -178 281 -178 27 0 70 36 78 66 5 14 -17 65 -68 165 -77 149 -151
318 -143 326 3 2 27 -10 54 -26 75 -46 249 -127 337 -156 178 -60 409 -91 581
-79 91 7 93 6 105 -17 7 -13 58 -93 113 -176 l101 -153 173 0 c95 0 173 1 173
3 0 2 -24 68 -54 148 -180 486 -273 961 -264 1354 l3 140 39 -105 c224 -598
556 -1086 979 -1441 l117 -99 136 0 137 0 -94 66 c-876 620 -1353 1671 -1439
3168 -47 833 62 1940 281 2835 40 164 40 165 21 190 -28 37 -64 48 -95 28 -50
-32 -276 -428 -403 -707 -190 -414 -365 -949 -481 -1470 -25 -114 -81 -459
-102 -630 -42 -341 -74 -854 -68 -1102 2 -60 2 -108 0 -108 -12 0 -88 385
-123 630 -26 186 -36 286 -70 705 -22 276 -11 835 26 1333 19 243 16 264 -33
283 -32 12 -72 -2 -91 -31 -12 -20 -34 -253 -53 -580 -19 -314 -17 -1027 4
-1260 76 -856 240 -1495 526 -2042 88 -169 92 -178 119 -215 12 -17 22 -36 22
-42 0 -6 5 -11 10 -11 6 0 10 -4 10 -10 0 -5 15 -29 33 -53 17 -24 39 -54 47
-67 8 -12 20 -28 25 -34 6 -6 36 -42 67 -81 31 -38 101 -114 156 -167 54 -54
99 -99 98 -99 -2 -2 -37 -7 -111 -16 -111 -12 -193 -10 -363 12 -125 17 -375
111 -497 188 -79 50 -168 112 -212 149 -51 43 -76 50 -116 33 -25 -11 -49 -62
-43 -93 3 -15 8 -43 10 -62 8 -51 13 -72 25 -102 6 -16 9 -28 6 -28 -2 0 14
-43 35 -95 21 -52 34 -95 29 -95 -18 0 -182 165 -262 265 -44 55 -107 141
-139 190 -63 96 -222 410 -234 460 -4 17 -10 35 -14 40 -10 13 -63 179 -94
290 -48 175 -103 480 -120 660 -24 260 -30 405 -30 710 1 635 60 1292 190
2095 255 1574 365 2615 390 3690 14 597 -40 1318 -121 1628 -13 51 -13 58 3
77 9 12 50 64 91 116 81 104 175 240 232 337 l37 64 6 -64 c3 -35 10 -153 16
-263 78 -1410 465 -2894 1022 -3923 70 -128 97 -162 131 -162 37 0 77 36 77
69 0 15 -23 102 -51 192 -139 452 -254 963 -319 1418 -34 244 -79 731 -67 731
3 0 27 -64 52 -143 143 -430 332 -940 470 -1267 110 -260 289 -612 385 -760
170 -259 453 -490 1017 -828 349 -210 1014 -562 1062 -562 33 0 71 38 71 72 0
24 -19 50 -99 136 -304 328 -558 689 -816 1160 -86 158 -288 572 -282 579 3 2
52 -56 108 -129 246 -317 460 -558 725 -818 164 -161 365 -339 457 -405 l28
-21 -13 -109 c-26 -220 -12 -741 27 -1030 6 -40 6 -40 -133 -185 -143 -149
-360 -356 -366 -349 -2 2 10 59 27 127 33 134 31 162 -17 183 -42 19 -74 3
-112 -57 -52 -81 -162 -300 -226 -450 -47 -110 -64 -139 -110 -185 -93 -93
-126 -197 -99 -313 12 -47 10 -60 -23 -180 -110 -396 -194 -905 -228 -1369 -6
-92 -15 -164 -19 -160 -21 22 -112 364 -158 593 -77 382 -111 742 -111 1191 0
394 27 741 85 1104 27 167 89 471 111 543 20 68 18 105 -9 130 -28 27 -67 28
-96 5 -25 -21 -81 -231 -125 -472 -204 -1116 -149 -2215 158 -3146 75 -225
134 -370 242 -593 222 -459 473 -817 828 -1179 l149 -153 184 0 c172 0 183 1
183 19 0 10 -11 79 -25 152 -49 256 -42 439 26 644 56 170 237 513 437 829 64
101 77 116 83 98 13 -36 58 -321 70 -452 15 -154 17 -476 5 -937 l-9 -353 80
0 80 0 13 464 c23 821 6 992 -174 1707 -78 307 -104 431 -166 779 -13 69 -25
130 -27 136 -2 7 13 17 34 24 54 18 202 94 258 135 l48 33 42 -56 c91 -124
223 -215 357 -247 83 -19 257 -19 333 0 84 22 175 69 237 125 l53 47 103 -406
c126 -503 258 -1004 362 -1377 111 -398 156 -500 398 -914 133 -227 182 -321
182 -350 0 -12 -9 -39 -20 -60 l-20 -40 93 0 94 0 13 45 c18 65 8 105 -58 240
l-60 120 18 137 c60 456 102 1141 122 1953 6 275 12 501 13 503 1 1 46 -18
101 -43 l99 -44 -2 -313 c-5 -686 -50 -1503 -113 -2058 -20 -173 -66 -488 -76
-523 -5 -15 -1 -18 17 -15 27 4 28 4 63 248 86 592 156 1693 156 2458 0 178 1
182 19 172 34 -18 57 -11 132 38 41 26 80 52 87 56 11 7 13 -41 7 -280 -19
-877 -47 -1418 -101 -1962 -21 -212 -39 -352 -91 -694 -5 -33 -3 -38 14 -38
23 0 28 25 69 303 79 548 132 1366 150 2340 l7 368 60 41 61 41 63 -34 63 -34
0 -100 c0 -152 -19 -791 -30 -1045 -35 -769 -102 -1435 -186 -1847 -6 -29 -4
-33 14 -33 22 0 28 19 56 181 l12 74 7 -53 c6 -53 70 -190 92 -198 6 -3 51 -4
98 -2 l87 3 -40 63 c-80 126 -83 136 -65 198 8 30 53 141 99 246 146 337 172
421 320 1013 153 614 406 1730 406 1790 0 21 3 20 68 -24 188 -129 428 -154
611 -65 90 44 202 147 270 249 l48 72 39 -34 c56 -48 208 -121 284 -137 78
-16 76 -4 32 -201 -18 -77 -43 -212 -57 -300 -13 -88 -38 -232 -55 -320 -110
-577 -125 -677 -167 -1126 -36 -384 -36 -616 1 -994 31 -317 32 -376 10 -410
l-16 -25 90 0 c73 0 91 3 96 16 11 29 6 179 -14 389 -11 116 -22 255 -25 310
-3 55 -8 132 -10 170 -3 39 4 176 15 305 11 128 20 243 21 254 0 24 165 -448
240 -689 86 -276 121 -423 116 -486 -5 -57 -44 -146 -99 -227 l-29 -43 98 3
98 3 27 50 c39 70 68 168 68 226 0 28 -7 84 -16 126 -34 166 -197 679 -389
1228 l-77 220 17 110 c9 60 41 236 70 390 57 298 75 400 99 560 8 55 33 174
55 264 23 91 41 172 41 182 0 11 11 19 35 23 19 4 76 27 126 52 73 37 111 65
192 143 l102 97 60 -9 c33 -4 107 -6 165 -3 189 9 357 69 461 164 l56 51 26
-127 c60 -288 105 -598 127 -881 13 -172 13 -640 0 -796 -70 -823 -325 -1470
-788 -1992 l-73 -83 108 0 108 0 66 83 c341 425 563 923 673 1507 60 319 81
599 73 995 -11 559 -95 1112 -257 1689 -28 98 -49 181 -47 183 2 2 46 -58 97
-132 364 -536 669 -1222 879 -1980 92 -330 90 -318 57 -514 -101 -590 -334
-1232 -624 -1719 -34 -57 -62 -106 -62 -108 0 -3 42 -3 93 -2 l92 3 58 100
c162 281 346 701 416 952 10 37 37 133 59 213 261 929 279 1975 56 3099 -154
777 -409 1544 -759 2281 -134 281 -184 371 -217 389 -24 14 -30 14 -62 -2 -64
-30 -61 -42 72 -310 648 -1302 1003 -2781 967 -4025 -4 -129 -11 -230 -15
-225 -4 4 -27 71 -50 148 -254 840 -662 1630 -1111 2149 -137 160 -155 172
-207 151 -41 -18 -51 -55 -28 -115 48 -131 137 -403 132 -407 -3 -3 -46 30
-97 73 -220 186 -442 410 -629 633 l-87 104 -6 281 c-11 451 -53 781 -136
1053 l-19 62 132 113 c211 181 439 394 611 569 362 370 491 563 599 896 134
413 261 1096 351 1888 15 127 29 241 32 255 5 23 7 22 14 -12 5 -20 17 -105
28 -190 81 -629 91 -1327 26 -1991 -16 -161 -12 -186 32 -206 62 -28 92 3 137
144 101 320 195 780 251 1235 174 1416 33 2955 -410 4495 -202 704 -498 1480
-820 2152 -61 126 -78 155 -101 163 -36 14 -77 -2 -93 -36 -16 -37 -15 -42 38
-150 438 -897 819 -1991 1035 -2974 264 -1202 337 -2469 205 -3587 -22 -193
-66 -484 -74 -491 -3 -3 -5 84 -5 194 0 587 -76 1277 -190 1729 -32 129 -49
155 -99 155 -16 0 -37 -10 -50 -24 -20 -21 -24 -45 -42 -237 -61 -662 -151
-1324 -245 -1801 -101 -515 -205 -845 -326 -1029 -156 -239 -530 -625 -993
-1022 -187 -161 -231 -196 -223 -177 4 8 40 87 81 175 259 555 468 1265 582
1978 41 260 42 271 12 301 -30 30 -66 33 -96 8 -11 -9 -58 -108 -104 -222
-234 -570 -500 -1087 -771 -1500 -143 -216 -405 -560 -427 -560 -4 0 6 42 23
92 200 634 384 1438 492 2158 131 872 183 1647 173 2595 l-5 510 116 117 116
118 -19 32 c-32 56 -118 170 -187 247 l-65 73 -17 196 c-69 778 -196 1570
-357 2222 -61 246 -75 281 -118 293 -22 5 -81 -18 -81 -33 0 -5 -9 -10 -21
-10 -12 0 -119 -37 -238 -81 -375 -141 -787 -272 -1182 -378 -207 -55 -521
-129 -584 -137 l-40 -6 -54 133 c-73 183 -209 492 -326 744 -154 333 -477 965
-511 1002 -37 39 -63 42 -100 10 -33 -29 -33 -26 5 -292 61 -428 107 -870 138
-1335 21 -326 24 -1170 5 -1435 -14 -187 -41 -457 -47 -463 -8 -8 -156 387
-246 658 -310 931 -513 1939 -594 2955 -9 110 -18 215 -21 233 -13 85 -119
100 -147 21 -6 -19 5 -174 38 -499 127 -1268 429 -2492 871 -3530 78 -185 283
-608 343 -709 18 -29 30 -56 27 -58 -7 -7 -121 31 -249 83 -175 71 -192 56
-192 -168 l0 -147 -25 6 c-14 3 -84 25 -156 48 -223 73 -456 194 -646 336
-103 76 -131 83 -168 44 -21 -23 -23 -30 -17 -108 8 -110 40 -267 83 -400 20
-60 34 -110 32 -112 -8 -8 -97 76 -191 180 -355 394 -631 884 -857 1525 -54
152 -143 445 -165 541 -8 35 -26 107 -40 159 -39 149 -131 615 -164 835 -74
494 -113 940 -127 1450 -4 132 -11 248 -16 258 -22 43 -98 42 -125 -2 -14 -23
-82 -320 -127 -561 -111 -591 -166 -1260 -149 -1829 l6 -234 -169 7 c-198 8
-318 19 -506 46 -182 27 -518 87 -526 94 -3 4 -1 54 5 113 10 88 9 112 -2 134
-24 46 -78 53 -115 14 -19 -21 -25 -42 -33 -127 -6 -57 -11 -104 -12 -105 -1
-2 -95 15 -208 37 -213 41 -237 41 -267 5 -21 -26 -18 -82 7 -107 18 -17 65
-30 235 -63 l213 -41 -1 -55 c0 -29 -5 -214 -11 -409 -16 -494 -1 -1017 43
-1534 14 -162 14 -180 0 -188 -23 -13 -20 -58 5 -84 16 -17 23 -47 35 -143
l14 -121 -54 -82 c-61 -94 -138 -243 -172 -336 l-24 -62 60 -44 c33 -24 111
-74 175 -112 63 -37 115 -68 115 -70 0 -2 20 -115 45 -251 182 -992 474 -1990
851 -2916 179 -438 467 -1044 693 -1456 55 -102 99 -186 97 -188 -2 -2 -50 33
-107 78 -502 398 -1047 1022 -1548 1772 -40 59 -83 113 -96 119 -33 15 -80 -5
-95 -41 -13 -32 18 -129 135 -416 269 -662 593 -1249 944 -1710 54 -71 97
-132 95 -134 -9 -9 -552 298 -804 456 -276 173 -544 375 -657 497 -259 277
-596 1032 -977 2191 -75 226 -152 464 -173 530 -31 98 -43 122 -64 134 -33 18
-74 8 -95 -24 -34 -53 -28 -547 12 -950 35 -351 129 -925 180 -1100 4 -14 3
-17 -4 -10 -24 23 -169 431 -258 725 -256 841 -399 1704 -445 2675 -13 280 -7
1032 10 1285 61 868 197 1750 375 2420 38 144 39 180 3 205 -30 21 -83 19
-106 -4 -22 -22 -31 -52 -61 -191 -11 -52 -38 -178 -59 -280 -212 -994 -321
-1921 -321 -2733 l0 -249 -56 -109 c-191 -374 -564 -788 -1094 -1216 -106 -85
-331 -253 -340 -253 -4 0 33 79 82 175 360 708 689 1647 967 2765 85 339 171
720 171 755 0 26 -46 65 -78 65 -54 0 -64 -21 -133 -291 -59 -234 -64 -249
-67 -199 -2 30 2 129 8 220 115 1695 668 3165 1608 4280 140 166 493 518 662
660 889 748 1967 1233 3300 1484 699 131 1386 169 1974 108 l64 -7 -60 -95
c-74 -118 -157 -285 -202 -410 -19 -52 -38 -94 -43 -93 -4 0 -89 9 -188 19
-223 22 -734 25 -930 5 -370 -37 -701 -103 -1020 -202 -514 -161 -1438 -636
-1971 -1014 -560 -398 -818 -725 -1042 -1325 -91 -243 -210 -715 -198 -788 11
-72 92 -131 162 -117 52 9 79 39 190 206 117 176 298 421 425 574 125 151 457
478 609 599 337 269 737 501 1195 691 953 396 1836 535 2700 425 286 -37 569
-102 850 -196 240 -80 330 -119 328 -141 -1 -10 -10 -65 -19 -123 -32 -200
-15 -802 27 -925 11 -33 23 -43 247 -198 208 -144 442 -283 646 -383 205 -101
249 -106 275 -34 9 27 6 42 -20 108 -55 136 -109 293 -160 462 -62 204 -190
681 -186 693 3 9 113 -68 135 -95 7 -9 59 -110 116 -226 129 -260 289 -562
419 -792 54 -96 110 -195 124 -220 54 -96 173 -268 197 -284 14 -9 42 -16 62
-16 33 0 48 12 168 128 140 136 193 180 351 286 186 126 255 195 255 256 0 28
-72 159 -151 277 -115 169 -313 402 -574 671 -75 78 -135 142 -132 142 3 0 57
-11 121 -25 64 -14 135 -25 158 -25 105 1 194 83 250 232 44 113 82 253 103
372 8 49 17 91 18 93 6 5 351 -340 462 -462 827 -911 1514 -2105 2040 -3544
45 -124 80 -228 78 -231 -6 -6 -6 -5 -237 271 -260 312 -238 289 -279 289 -27
0 -41 -7 -56 -26 -40 -51 -38 -54 179 -314 700 -838 1465 -1613 2090 -2116
230 -185 539 -405 704 -502 21 -13 36 -25 33 -28 -3 -3 -83 9 -178 26 -931
168 -1678 452 -2093 793 -74 61 -108 71 -144 39 -37 -31 -38 -65 -1 -107 42
-48 201 -166 322 -239 l96 -58 -6 -92 c-17 -271 101 -863 294 -1475 324 -1029
845 -2169 1594 -3484 331 -580 508 -937 689 -1392 71 -180 75 -191 169 -495
276 -885 348 -1625 230 -2345 -44 -270 -149 -626 -249 -850 -94 -210 -190
-389 -298 -558 -70 -109 -197 -280 -270 -365 -10 -11 -37 -44 -61 -73 -68 -82
-365 -375 -466 -460 -125 -105 -283 -224 -406 -306 l-104 -69 -430 -83 c-236
-46 -432 -85 -434 -87 -2 -2 198 -4 445 -4 l450 0 110 72 c60 40 115 77 123
82 12 7 13 -4 7 -73 l-6 -81 79 0 80 0 6 33 c3 17 9 83 14 146 8 96 13 117 30
130 11 9 47 38 80 64 34 27 61 47 61 45 0 -10 -82 -213 -124 -307 -25 -57 -46
-105 -46 -107 0 -2 40 -4 89 -4 l88 0 56 132 c63 151 114 292 153 423 27 89
29 91 131 199 600 629 966 1386 1073 2224 18 137 43 563 37 617 -2 17 5 20 38
23 264 16 658 104 935 207 222 83 509 221 630 303 57 38 69 64 56 118 -9 35
-29 41 -176 54 -230 19 -489 50 -640 76 -311 53 -651 153 -872 256 l-107 50
-16 71 c-82 359 -241 828 -425 1252 -157 360 -314 667 -600 1170 -665 1169
-1122 2137 -1459 3095 -231 652 -401 1372 -401 1692 0 68 3 89 13 85 6 -3 86
-38 177 -78 495 -215 1305 -416 1995 -493 159 -18 195 -5 195 72 0 38 -27 60
-130 106 -287 128 -726 419 -1110 737 -412 339 -927 836 -1362 1311 l-88 95
-94 285 c-322 970 -734 1879 -1194 2628 -420 685 -934 1322 -1425 1769 l-126
115 -6 55 c-31 305 -70 441 -151 531 -55 61 -99 77 -244 90 -132 12 -202 9
-366 -16 l-102 -16 -148 85 c-363 207 -739 371 -1140 497 l-102 32 -71 84
c-117 138 -247 234 -378 279 -101 34 -150 38 -198 16z m157 -172 c227 -89 458
-386 621 -799 69 -174 69 -163 -2 -189 -81 -29 -152 -95 -193 -179 -30 -60
-33 -75 -33 -157 0 -80 4 -97 32 -157 17 -37 52 -89 76 -115 l45 -48 -38 -44
-39 -45 -158 73 c-215 99 -555 274 -683 350 -117 71 -229 152 -276 200 -28 29
-31 37 -27 79 13 123 77 313 160 474 87 169 346 536 401 568 26 15 56 12 114
-11z m848 -549 c88 -34 227 -90 308 -126 139 -62 422 -204 450 -227 10 -7 -14
-24 -93 -66 -121 -64 -254 -156 -343 -237 -53 -47 -63 -53 -68 -37 -32 102
-102 189 -193 239 l-53 29 -35 105 c-19 57 -59 161 -90 230 -30 69 -57 131
-60 138 -9 20 10 15 177 -48z m-1855 -415 c77 -8 147 -15 156 -15 14 0 16 -10
11 -69 -4 -62 -2 -75 22 -115 48 -82 220 -210 471 -350 119 -67 491 -252 635
-316 92 -41 93 -42 77 -64 -12 -17 -22 -15 -173 42 -1223 457 -2511 390 -3901
-204 -620 -265 -1088 -576 -1523 -1013 -247 -247 -427 -468 -646 -788 -48 -70
-91 -132 -95 -137 -11 -13 28 162 72 317 102 361 242 669 417 917 85 122 319
356 477 478 420 324 1045 682 1696 970 465 206 994 329 1564 366 123 8 605 -4
740 -19z m3457 0 c28 -11 86 -141 105 -235 14 -66 18 -132 18 -290 0 -237 -17
-342 -87 -557 -33 -101 -48 -133 -78 -164 -35 -38 -40 -39 -81 -33 -87 13
-852 213 -881 231 -4 2 8 19 26 38 19 19 49 64 68 102 30 62 33 75 33 163 0
88 -3 101 -33 162 -43 87 -127 166 -205 193 -31 10 -57 22 -57 25 0 11 174
138 255 186 146 86 281 139 450 174 74 16 122 19 270 16 99 -2 188 -7 197 -11z
m-1628 -139 c83 -35 122 -173 82 -294 -28 -84 -132 -182 -193 -182 -36 0 -120
59 -151 105 -85 128 -50 291 77 357 60 32 130 37 185 14z m469 -366 c29 -11
68 -36 87 -55 29 -30 34 -43 38 -92 10 -141 -63 -242 -198 -277 -58 -14 -70
-10 -70 26 0 46 -45 132 -97 188 l-55 60 31 35 c17 19 38 50 47 68 21 41 16
37 61 52 53 20 94 18 156 -5z m-360 -263 c20 -15 49 -48 63 -73 25 -43 26 -48
15 -99 -30 -134 -177 -238 -314 -222 -60 8 -79 23 -113 93 -50 102 -29 222 51
292 l42 37 110 0 c104 0 111 -1 146 -28z m-394 -449 c27 -29 70 -61 110 -81
59 -29 74 -32 157 -32 l91 0 66 -265 c76 -305 175 -654 241 -852 25 -75 46
-139 46 -142 0 -31 -579 325 -769 473 -21 16 -25 32 -38 147 -21 187 -21 581
0 712 19 117 26 135 41 107 6 -10 31 -41 55 -67z m903 -2 c106 -30 214 -60
240 -67 41 -10 70 -32 200 -154 273 -254 530 -533 702 -761 95 -127 176 -255
175 -277 0 -15 -25 -35 -184 -142 -151 -101 -209 -148 -323 -259 l-83 -81 -19
25 c-55 71 -268 444 -442 773 -147 279 -488 980 -488 1005 0 2 7 2 15 -2 8 -3
101 -30 207 -60z m-347 -59 l16 -38 -31 16 c-29 15 -41 51 -23 69 9 9 20 -3
38 -47z m-1588 -2287 c170 -373 302 -694 289 -701 -6 -4 -47 -13 -91 -20 -58
-9 -86 -19 -102 -35 -32 -32 -31 -87 2 -119 29 -30 67 -32 185 -9 45 8 83 14
85 12 20 -22 215 -598 278 -818 66 -231 67 -204 -6 -219 -150 -31 -363 -126
-467 -210 -68 -55 -71 -59 -68 -96 4 -47 50 -46 124 1 117 75 480 231 497 214
10 -9 59 -260 54 -273 -3 -7 -47 -30 -98 -50 -154 -61 -304 -140 -307 -161 -3
-11 12 -34 36 -60 23 -22 45 -52 50 -66 14 -36 -7 -79 -54 -114 -105 -78 -151
-146 -110 -162 8 -3 64 12 125 34 88 31 111 36 111 24 0 -8 -5 -55 -12 -103
-6 -49 -9 -91 -6 -94 3 -4 29 1 57 11 67 21 161 16 199 -13 15 -11 31 -36 36
-57 25 -96 -100 -208 -250 -223 -47 -5 -54 -9 -54 -27 0 -28 18 -202 26 -248
l6 -37 51 26 c62 31 160 42 216 23 35 -11 42 -10 107 23 91 45 215 90 224 80
4 -4 13 -24 19 -44 29 -89 105 -168 190 -197 19 -7 64 -12 100 -12 127 0 223
73 261 198 11 35 20 77 20 93 0 35 3 35 145 14 197 -29 405 -86 405 -110 0 -7
-5 -49 -11 -91 -19 -140 -83 -309 -157 -417 -43 -61 -151 -160 -205 -186 -25
-12 -51 -28 -57 -36 -20 -24 -8 -76 23 -99 27 -20 28 -20 79 -2 130 46 275
176 356 318 56 98 108 246 128 361 24 135 14 402 -20 554 -30 135 -83 293
-143 427 -24 54 -41 101 -38 104 13 13 204 -40 280 -77 97 -48 145 -93 185
-172 80 -158 78 -350 -6 -598 -19 -56 -32 -106 -29 -110 4 -3 35 -6 70 -6 56
0 75 6 156 47 51 26 95 45 98 42 3 -3 5 -244 5 -537 0 -628 -13 -930 -66
-1517 l-22 -244 -57 -76 c-170 -225 -531 -602 -744 -779 -505 -419 -1043 -718
-1670 -927 -543 -181 -789 -219 -1430 -219 -271 0 -403 5 -535 18 -1372 138
-2254 571 -2460 1207 -11 36 -30 117 -41 180 -40 228 -111 474 -215 746 -63
164 -132 466 -219 947 -4 26 -3 28 18 21 88 -28 174 -31 223 -8 19 9 34 18 34
20 0 2 -15 25 -34 51 -137 192 -205 458 -161 626 21 82 58 131 139 185 63 42
262 129 272 119 2 -2 0 -37 -5 -78 -5 -41 -13 -123 -16 -183 -7 -104 -7 -109
11 -101 82 35 132 47 183 42 61 -7 99 -29 120 -72 43 -88 -95 -221 -241 -233
-69 -5 -68 -1 -38 -154 11 -57 20 -105 20 -107 0 -2 8 3 18 12 66 60 241 84
299 41 15 -11 33 -35 38 -51 l10 -31 85 64 c47 36 136 90 199 122 108 54 114
56 125 38 28 -50 100 -115 149 -136 92 -40 214 -25 295 37 45 34 87 102 102
164 l12 49 41 0 c23 0 92 -7 152 -15 61 -8 111 -15 113 -15 8 0 0 -141 -13
-213 -26 -148 -77 -272 -172 -414 -49 -72 -54 -85 -46 -110 12 -35 51 -58 85
-50 49 13 181 235 232 391 85 258 71 591 -36 895 -17 47 -50 128 -74 180 l-44
94 166 -4 c148 -4 168 -2 177 13 17 25 -14 53 -115 104 -48 24 -92 53 -99 65
-16 32 -5 95 25 134 37 49 34 72 -11 85 -84 23 -333 52 -549 63 l-229 12 -41
145 c-53 189 -57 203 -45 196 5 -3 110 -11 232 -17 220 -10 224 -10 241 10 22
29 12 61 -26 76 -51 22 -191 38 -341 39 l-140 2 -22 108 c-29 146 -69 384 -88
531 -20 160 -44 419 -39 424 7 8 418 21 424 13 4 -4 26 -74 50 -157 229 -798
561 -1442 992 -1922 173 -194 472 -443 531 -443 35 0 77 40 77 73 0 14 -24 76
-54 138 -30 63 -70 158 -90 211 -38 103 -90 292 -84 307 1 5 39 -13 83 -41
199 -124 503 -250 722 -298 116 -26 157 -26 184 1 19 19 21 29 15 83 -4 33 -9
99 -13 145 -6 80 -5 84 13 77 142 -58 327 -106 408 -106 114 0 126 54 45 190
-85 142 -168 296 -254 478 l-82 173 13 67 c69 369 105 1074 85 1665 -17 532
-49 944 -116 1502 -6 48 172 -303 332 -655z m-3132 20 c39 -355 108 -774 187
-1133 22 -103 39 -189 37 -191 -2 -2 -90 -6 -195 -10 l-192 -6 -7 177 c-18
424 18 1022 91 1513 13 91 25 172 25 180 1 8 10 -75 20 -185 10 -110 25 -265
34 -345z m5723 -435 c91 -386 183 -883 241 -1310 42 -305 48 -355 43 -355 -3
0 -38 31 -78 69 -168 160 -408 326 -645 446 -245 124 -275 131 -314 72 -14
-22 -14 -33 0 -118 9 -52 19 -185 22 -296 l6 -203 -94 0 c-205 0 -449 -31
-678 -86 -79 -19 -147 -34 -151 -34 -5 0 -11 19 -15 43 -42 257 -211 833 -365
1244 -22 59 -39 107 -38 108 2 1 77 19 168 39 520 117 1187 319 1670 505 85
33 162 59 170 58 11 -2 27 -53 58 -182z m-7081 -974 c385 -71 654 -101 896
-101 l157 0 0 -45 c0 -67 26 -314 56 -520 42 -302 113 -639 188 -893 l24 -82
-22 -4 c-11 -2 -74 -9 -139 -15 -169 -16 -382 -55 -564 -102 -87 -23 -167 -42
-178 -43 -29 -2 -106 132 -145 254 -20 63 -39 104 -50 110 -32 17 -75 11 -98
-13 -48 -51 -175 -360 -211 -514 -10 -38 -18 -52 -34 -57 -12 -3 -25 -2 -28 2
-4 4 -14 111 -23 237 -32 445 -39 708 -32 1200 7 518 12 615 30 615 6 0 84
-13 173 -29z m6652 -357 c146 -82 284 -173 396 -263 82 -65 257 -232 251 -239
-3 -2 -49 7 -103 22 -194 51 -318 72 -648 112 l-40 5 -1 178 c-1 98 -4 197 -8
220 -4 28 -3 41 5 41 6 0 73 -34 148 -76z m761 -797 l0 -38 -30 23 c-36 26
-39 55 -7 67 28 11 37 -2 37 -52z m-7170 -706 c0 -7 -143 -62 -148 -56 -5 5
24 93 50 154 l19 44 39 -67 c22 -38 40 -71 40 -75z m5738 4 c42 -35 55 -74 50
-145 -5 -74 -33 -109 -95 -117 -54 -7 -97 19 -123 72 -23 47 -24 65 -9 119 25
90 113 125 177 71z m-4347 -802 c40 -34 59 -79 59 -139 0 -39 -5 -51 -34 -80
-29 -29 -41 -34 -81 -34 -40 0 -52 5 -80 33 -37 37 -51 87 -40 144 4 22 20 50
40 70 43 43 89 45 136 6z m5684 -2268 c-64 -436 -139 -837 -234 -1245 -51
-223 -146 -588 -154 -597 -3 -2 -88 10 -189 27 -100 18 -246 36 -323 41 -77 4
-215 13 -307 18 l-167 10 -45 35 c-59 45 -206 136 -282 174 -60 30 -168 66
-235 77 -36 5 -37 8 -53 70 -9 35 -16 79 -16 98 0 34 0 34 123 87 678 296
1332 773 1804 1316 59 68 108 122 109 121 1 -1 -13 -106 -31 -232z m-6421
-973 c252 -174 663 -353 1012 -441 556 -140 944 -189 1564 -197 373 -5 348 1
310 -75 -18 -33 -23 -37 -76 -43 -160 -19 -495 -186 -546 -273 -14 -23 -29
-34 -51 -38 -93 -15 -179 -26 -332 -40 -298 -28 -532 -90 -781 -209 -223 -107
-350 -210 -429 -348 -22 -38 -42 -68 -45 -68 -6 0 -157 281 -243 455 -179 361
-410 902 -546 1279 -34 92 -61 169 -61 172 0 3 34 -24 76 -60 43 -36 109 -88
148 -114z m7151 -23 c-93 -394 -211 -766 -346 -1094 l-51 -125 -62 62 c-34 35
-87 80 -117 101 l-56 38 75 112 c166 251 366 605 512 909 41 85 76 154 78 153
2 -2 -13 -72 -33 -156z m-2881 -409 c45 -209 182 -363 373 -420 l42 -13 25
-106 c62 -261 156 -851 217 -1358 21 -177 21 -182 3 -207 -16 -21 -27 -25 -67
-26 -90 0 -164 -59 -218 -174 -27 -56 -32 -61 -99 -92 -82 -38 -148 -101 -201
-193 -31 -53 -45 -66 -97 -92 -33 -16 -77 -48 -97 -70 -44 -49 -92 -146 -101
-205 -5 -33 -11 -44 -28 -48 -72 -18 -165 -137 -181 -231 -13 -68 -22 -73 -33
-18 -35 161 -133 273 -256 289 -41 6 -45 9 -62 52 -25 67 -85 127 -150 152
-30 11 -63 20 -73 20 -12 0 -22 12 -30 40 -25 83 -119 150 -212 150 -44 0 -47
2 -64 40 -40 89 -133 140 -266 148 -84 4 -87 5 -114 40 l-28 35 6 461 c3 253
11 533 17 621 11 176 38 447 47 482 4 17 28 34 87 62 190 90 305 221 361 414
l16 54 82 7 c247 20 544 87 873 199 104 35 194 65 200 65 6 1 18 -34 28 -78z
m613 -382 c59 -41 75 -58 93 -101 56 -129 145 -576 204 -1032 38 -290 60 -494
54 -500 -3 -3 -17 -1 -32 5 -15 5 -51 10 -80 10 l-53 0 -17 148 c-55 480 -158
1115 -224 1382 -21 82 -32 146 -27 142 6 -3 42 -27 82 -54z m638 -148 c132 -9
446 -57 460 -71 4 -5 -78 -272 -164 -533 -32 -98 -37 -124 -29 -148 19 -54 86
-65 137 -22 l31 26 -6 -34 c-30 -159 -92 -376 -157 -548 -52 -137 -157 -370
-166 -370 -3 0 -19 16 -34 35 -37 46 -98 76 -158 78 -59 2 -51 -21 -79 237
-41 371 -100 778 -151 1040 -21 107 -63 283 -76 316 -7 19 11 19 392 -6z
m-3019 -129 c-42 -220 -66 -602 -75 -1169 l-6 -434 -35 -12 c-19 -7 -53 -24
-75 -39 l-40 -27 -3 287 c-7 596 32 1155 91 1333 21 61 26 68 86 108 35 23 66
41 68 38 2 -2 -3 -40 -11 -85z m3991 -134 c59 -44 140 -129 163 -172 12 -22 5
-37 -65 -167 -42 -79 -102 -181 -132 -227 -70 -108 -75 -131 -34 -172 26 -26
37 -30 61 -25 28 5 133 79 271 191 l57 45 20 -78 c66 -246 112 -664 112 -1002
l-1 -155 -52 -38 c-71 -53 -310 -169 -434 -211 -125 -43 -309 -88 -465 -115
-117 -20 -378 -46 -398 -39 -5 1 9 32 33 68 73 109 216 366 298 535 227 470
335 865 365 1337 l7 107 61 80 c33 45 64 81 67 81 4 0 33 -20 66 -43z m-4291
-24 c-10 -32 -35 -264 -46 -423 -6 -85 -14 -369 -17 -632 l-6 -476 -39 -18
c-21 -9 -54 -34 -72 -54 l-34 -37 -55 96 c-176 306 -271 576 -324 911 -13 84
-17 174 -18 337 0 122 3 224 7 228 13 13 133 33 328 55 107 12 200 23 205 25
6 2 25 4 43 4 27 1 32 -2 28 -16z m-759 -203 c-13 -204 22 -517 84 -749 95
-358 293 -740 554 -1066 135 -170 440 -462 620 -594 l60 -44 -4 -231 c-4 -264
11 -652 40 -1066 20 -286 37 -830 25 -819 -3 3 -36 120 -72 260 l-66 254 -18
290 c-36 545 -44 1005 -24 1253 l5 62 -48 33 c-180 124 -409 338 -464 435 -37
65 -126 162 -149 162 -34 0 -233 289 -339 490 -208 399 -309 843 -286 1266 7
126 9 136 29 144 11 5 30 9 40 9 18 1 19 -5 13 -89z m-170 -162 c0 -312 35
-531 129 -818 89 -270 263 -598 435 -817 39 -50 49 -70 49 -101 0 -32 9 -50
50 -101 47 -59 96 -139 88 -146 -4 -4 -248 22 -336 35 -260 40 -678 148 -817
210 -22 10 -74 32 -116 49 l-77 32 -6 57 c-28 260 -39 644 -22 824 l8 87 69
-45 c120 -78 165 -87 205 -43 35 38 22 75 -91 268 l-107 183 12 42 c6 22 30
76 52 119 75 144 222 258 474 367 1 0 1 -91 1 -202z m4928 55 c-20 -281 -115
-657 -246 -976 -53 -127 -207 -437 -260 -520 -28 -45 -32 -48 -47 -34 -9 9
-29 19 -44 22 -16 4 -28 9 -28 12 0 2 28 52 61 110 233 403 419 912 459 1253
6 52 13 104 15 116 5 23 75 114 89 114 5 0 5 -43 1 -97z m-8300 -1148 c-67
-366 -127 -879 -156 -1335 -15 -243 -15 -823 0 -1025 32 -436 67 -685 143
-1029 30 -139 30 -139 14 -220 -66 -339 -55 -707 34 -1145 16 -80 28 -146 26
-148 -7 -7 -142 115 -202 183 -114 130 -142 172 -185 281 -162 413 -281 892
-349 1395 -16 117 -17 164 -9 310 50 975 252 1876 584 2613 83 184 118 256
121 252 2 -2 -8 -61 -21 -132z m7283 121 c15 -8 49 -37 75 -66 l48 -52 68 7
c82 8 103 -1 130 -53 33 -67 34 -87 4 -136 -15 -26 -31 -46 -36 -46 -4 0 -29
20 -55 43 -111 102 -232 175 -273 163 -90 -24 -475 -380 -769 -711 -29 -33
-65 -74 -81 -91 -50 -58 -283 -337 -363 -436 -43 -54 -81 -98 -85 -97 -3 0
-21 19 -39 42 -136 170 -406 436 -617 608 -183 149 -412 296 -590 379 -127 59
-169 73 -197 64 -13 -3 -66 -49 -119 -101 l-96 -94 -52 65 -52 65 19 43 c31
72 53 79 163 52 21 -5 35 3 74 36 27 23 64 49 83 58 38 19 34 22 86 -58 l22
-35 85 3 c143 6 214 -26 225 -99 4 -22 15 -51 26 -64 18 -23 26 -25 102 -25
110 0 131 -15 138 -96 6 -75 28 -94 107 -94 95 0 147 -45 158 -139 9 -79 18
-86 111 -86 72 0 83 -3 107 -25 35 -33 62 -86 81 -163 28 -111 72 -157 149
-157 79 0 129 52 151 156 7 36 23 81 35 101 21 34 84 72 120 73 26 0 46 32 53
85 18 132 79 222 166 245 58 16 66 22 102 94 60 118 121 173 209 187 28 4 57
13 64 19 7 6 23 42 34 81 13 41 34 83 53 105 32 36 32 36 95 30 69 -7 78 -2
127 69 23 33 73 65 104 65 13 0 35 -6 50 -14z m-9488 -531 c-88 -577 -144
-1065 -165 -1450 -3 -60 -8 -133 -11 -162 l-5 -51 -97 -40 c-214 -88 -400
-143 -622 -181 -177 -31 -304 -41 -530 -41 -233 0 -347 9 -565 45 -225 38
-537 118 -519 135 5 4 47 20 94 35 253 82 666 267 935 420 581 329 1032 740
1274 1160 55 94 172 333 232 469 19 44 35 73 37 65 1 -8 -24 -190 -58 -404z
m9528 216 c31 -21 85 -64 119 -96 66 -59 66 -61 30 -109 -13 -18 -17 -18 -35
-5 -93 68 -144 99 -161 99 -51 0 -353 -261 -582 -505 -208 -220 -611 -692
-724 -848 l-20 -27 -90 107 c-179 215 -481 509 -695 679 -178 141 -532 354
-588 354 -10 0 -42 -20 -72 -45 -30 -25 -57 -45 -60 -45 -4 0 -21 15 -39 34
l-34 35 31 38 c17 21 53 60 80 86 l50 49 73 -33 c179 -78 396 -215 609 -385
159 -127 442 -407 594 -586 58 -70 115 -130 126 -133 11 -3 28 -1 39 4 10 6
89 97 174 203 297 371 625 738 824 923 85 79 282 245 291 245 2 0 29 -18 60
-39z m25 -246 c31 -25 57 -49 57 -55 0 -12 -192 -268 -270 -360 -35 -41 -106
-121 -157 -177 -55 -61 -93 -111 -93 -124 0 -25 -48 -623 -56 -696 l-5 -52
-200 99 c-109 55 -207 100 -217 100 -10 0 -100 -56 -199 -125 l-182 -125 -219
95 c-121 52 -230 95 -243 95 -13 0 -105 -47 -204 -104 l-179 -105 -87 45 -86
44 -6 107 c-9 135 -7 411 2 528 4 50 5 98 1 107 -3 10 -58 57 -122 105 -103
78 -335 278 -369 319 -10 12 -6 21 21 49 19 19 41 35 49 35 25 0 200 -98 331
-186 306 -204 593 -468 892 -821 71 -84 136 -153 144 -153 7 0 67 66 131 148
443 558 863 1008 1128 1207 33 25 65 45 70 45 6 0 36 -20 68 -45z m1806 -66
c28 -33 51 -64 51 -69 0 -13 -179 -116 -302 -175 -341 -161 -745 -260 -1150
-281 l-124 -7 15 92 15 91 36 0 c53 0 279 28 420 51 346 57 710 184 915 318
33 22 63 40 67 40 3 1 29 -26 57 -60z m-1623 -115 c-8 -33 -17 -83 -21 -112
-6 -46 -17 -66 -83 -150 -41 -53 -120 -148 -174 -209 l-100 -113 -17 -197
c-14 -163 -20 -197 -32 -193 -8 2 -35 5 -61 5 -38 0 -48 4 -48 17 0 9 7 98 16
199 l16 183 45 51 c194 218 360 425 438 543 15 23 30 41 32 38 2 -2 -3 -30
-11 -62z m1983 -277 c108 -106 262 -247 343 -315 81 -67 157 -136 169 -153 27
-38 36 -117 19 -159 -28 -67 -137 -137 -257 -167 -78 -18 -288 -22 -367 -5
-27 5 -59 6 -71 2 -12 -4 -47 -40 -79 -79 -68 -83 -154 -151 -246 -195 -61
-29 -72 -31 -176 -31 -110 0 -111 0 -195 42 -55 27 -111 66 -161 111 -86 79
-107 89 -149 71 -23 -9 -40 -31 -68 -88 -78 -155 -189 -270 -299 -311 -141
-53 -349 0 -475 122 -59 59 -60 24 13 398 28 146 58 306 67 357 l16 91 106 7
c499 29 924 134 1306 321 72 35 168 88 215 118 47 30 87 55 89 55 2 1 92 -86
200 -192z m-6489 62 c373 -118 693 -183 1102 -224 l68 -7 10 -37 c5 -20 13
-51 16 -69 l7 -32 -80 0 c-174 0 -530 44 -773 95 -155 33 -402 104 -495 143
-127 52 -215 95 -215 103 0 4 23 32 51 63 l50 55 52 -21 c29 -11 122 -42 207
-69z m4434 -219 c-71 -417 -232 -1240 -309 -1575 l-34 -150 5 80 c8 142 84
1145 98 1307 l14 157 79 88 c43 48 96 109 117 136 21 26 40 46 41 45 2 -2 -3
-41 -11 -88z m-2868 -130 l61 -45 -1 -300 c0 -165 2 -408 6 -540 l7 -240 -38
150 c-21 83 -90 371 -155 640 -64 270 -120 501 -123 514 -5 20 12 9 88 -55 52
-43 122 -99 155 -124z m-1926 130 c372 -169 871 -278 1424 -314 l180 -11 32
-130 c17 -71 59 -244 93 -384 l62 -254 -27 -53 c-100 -198 -363 -271 -592
-164 -86 40 -169 126 -218 225 -59 120 -89 124 -214 30 -154 -117 -339 -194
-466 -195 -61 0 -144 23 -200 56 -52 30 -132 114 -168 176 -31 53 -62 68 -121
57 -341 -63 -715 66 -715 245 0 61 32 100 182 222 144 117 329 282 503 448 61
58 115 103 120 101 6 -2 62 -27 125 -55z m12436 -26 c98 -43 341 -123 484
-159 235 -59 425 -91 755 -128 l110 -13 -73 -37 c-233 -120 -621 -247 -912
-301 -86 -16 -341 -48 -346 -43 -1 1 -10 81 -18 177 -16 165 -60 484 -73 516
-7 20 6 18 73 -12z m-8018 -560 c45 -31 19 -114 -36 -114 -36 0 -62 27 -62 66
0 34 28 64 60 64 9 0 26 -7 38 -16z m-47 -161 c15 -3 37 0 49 7 23 12 23 12
16 -51 -3 -35 -13 -158 -21 -274 -8 -115 -17 -233 -21 -262 l-5 -52 -30 11
c-17 6 -43 8 -59 4 -29 -5 -30 -4 -30 32 0 20 9 152 20 292 11 140 20 268 20
284 0 23 3 27 18 21 9 -4 29 -10 43 -12z m-421 -143 c193 -97 200 -101 200
-130 0 -17 -3 -30 -6 -30 -4 0 -92 44 -196 97 -104 53 -195 96 -201 96 -7 0
-95 -57 -196 -127 -102 -69 -187 -125 -191 -124 -3 2 -109 47 -234 101 l-228
98 -151 -87 c-84 -48 -170 -98 -192 -110 l-40 -23 -80 42 c-73 39 -80 46 -83
76 l-3 32 80 -41 c56 -29 87 -39 102 -35 11 4 100 53 197 109 l176 103 229
-99 c125 -54 234 -98 241 -98 7 0 93 56 192 124 98 69 180 125 182 125 1 1 92
-44 202 -99z m-11 -106 c102 -52 190 -99 194 -103 10 -10 -3 -231 -14 -231 -5
0 -90 45 -189 100 -99 55 -185 100 -190 100 -5 0 -86 -52 -180 -116 l-172
-116 -221 100 c-122 56 -229 104 -239 107 -10 4 -87 -34 -215 -108 l-199 -113
-77 34 -77 35 0 56 c0 31 -3 80 -7 110 l-6 55 76 -42 c42 -23 83 -42 92 -42 9
0 97 47 196 105 99 58 185 105 190 105 6 0 110 -43 232 -95 122 -52 229 -95
237 -95 8 0 96 56 195 125 99 68 182 124 184 125 2 0 88 -43 190 -96z m-4832
-20 l45 -27 -6 -56 c-13 -115 -26 -412 -26 -581 0 -1047 250 -1933 728 -2579
39 -53 60 -92 68 -131 7 -30 11 -56 9 -58 -8 -8 -332 318 -429 432 -261 306
-494 669 -647 1007 l-52 114 7 195 c18 505 76 976 177 1425 36 157 70 285 76
285 2 0 25 -12 50 -26z m276 -104 c74 -16 244 -23 325 -13 l73 9 35 -47 c103
-141 251 -224 422 -236 73 -5 83 -8 87 -27 3 -12 30 -151 61 -311 30 -159 81
-393 113 -518 l58 -229 -103 -158 c-140 -215 -260 -421 -365 -625 -144 -280
-188 -412 -211 -624 l-13 -114 -68 119 c-287 501 -446 1057 -503 1753 -13 155
-15 269 -10 551 8 432 12 493 35 486 9 -3 38 -10 64 -16z m4553 -162 c173 -96
184 -103 184 -131 0 -36 9 -40 -193 74 -89 50 -172 91 -185 91 -12 0 -98 -50
-191 -111 l-168 -112 -223 100 c-123 56 -233 101 -245 101 -12 0 -109 -49
-215 -110 l-192 -109 -69 35 c-62 31 -69 37 -69 64 0 17 2 30 5 30 3 0 32 -13
65 -30 33 -16 65 -30 71 -30 6 0 98 50 204 110 106 61 197 110 203 110 6 0
114 -47 242 -105 l231 -104 172 114 c95 63 176 115 181 115 5 0 91 -46 192
-102z m-948 -153 l52 -24 0 -73 c0 -148 -20 -850 -30 -1083 -21 -480 -82
-1245 -108 -1373 -7 -33 -10 -30 -105 135 l-97 170 15 169 c17 205 41 595 55
919 8 188 29 961 30 1097 0 21 10 32 53 56 28 17 59 31 67 31 8 1 39 -10 68
-24z m1368 17 c26 -17 35 -51 22 -80 -16 -33 -75 -43 -102 -17 -21 21 -21 63
1 87 16 18 59 24 79 10z m-273 -158 c18 -12 19 -36 19 -466 1 -450 -8 -663
-48 -1198 -20 -255 -32 -300 -177 -635 -49 -116 -100 -241 -113 -280 -29 -86
-29 -79 -5 87 76 516 130 1339 147 2235 l7 353 76 -42 c42 -23 84 -47 94 -54z
m-1336 -326 c-11 -653 -65 -1716 -88 -1703 -18 12 -106 236 -145 374 l-44 155
10 185 c17 314 30 754 30 1013 l0 248 33 14 c17 8 70 37 117 65 47 27 87 50
89 50 2 1 1 -180 -2 -401z m1590 325 c43 5 44 4 39 -19 -4 -13 -6 -130 -7
-261 0 -203 -3 -252 -21 -335 -20 -93 -22 -97 -50 -103 -16 -4 -32 -4 -35 -1
-12 11 -25 449 -18 589 7 144 7 146 27 136 12 -6 41 -9 65 -6z m-1867 -233 c0
-196 -16 -745 -28 -1000 l-7 -135 -32 120 c-31 118 -31 122 -21 230 12 131 16
825 5 942 l-7 83 45 -22 45 -22 0 -196z m1840 -541 c0 -13 -22 -103 -26 -108
-2 -2 -10 2 -19 9 -23 19 -19 76 7 94 26 19 38 20 38 5z m-169 -689 c-31 -115
-40 -141 -36 -100 2 30 9 150 15 265 16 297 19 309 42 135 l19 -145 -40 -155z
m-6625 -1194 c30 -88 52 -161 50 -164 -2 -2 -50 65 -106 149 l-102 153 38 12
c22 7 45 11 53 11 9 -1 34 -61 67 -161z"/>
<path d="M11540 11674 c-19 -7 -48 -13 -63 -13 -34 -1 -32 -10 20 -116 94
-187 263 -352 449 -436 75 -34 116 -37 144 -9 44 44 17 97 -68 130 -163 63
-356 255 -418 415 -9 25 -19 44 -23 44 -3 -1 -22 -7 -41 -15z"/>
<path d="M7090 10775 c-19 -7 -45 -14 -57 -14 -13 -1 -23 -5 -23 -10 0 -22
124 -193 185 -254 116 -117 266 -203 405 -233 106 -22 280 -16 318 13 31 23
40 68 18 98 -13 18 -26 20 -163 20 -135 1 -154 3 -215 27 -144 55 -265 154
-362 296 -27 40 -54 72 -60 71 -6 0 -27 -7 -46 -14z"/>
<path d="M11053 9413 c-11 -10 -35 -38 -53 -62 -48 -62 -151 -145 -236 -188
-97 -50 -119 -99 -69 -148 33 -34 71 -32 151 10 161 84 334 254 334 327 0 62
-82 101 -127 61z"/>
<path d="M9825 9228 c-60 -34 -61 -86 -2 -142 90 -87 319 -178 387 -154 35 12
50 35 50 76 0 28 -35 72 -58 72 -35 0 -175 55 -221 87 -115 81 -118 83 -156
61z"/>
<path d="M11910 6854 c-54 -23 -260 -80 -415 -114 -77 -17 -160 -41 -184 -52
-62 -30 -221 -188 -221 -220 0 -25 17 -48 35 -48 5 0 56 45 112 99 113 111 92
101 338 157 180 41 359 95 393 119 27 20 29 51 3 65 -24 12 -18 13 -61 -6z"/>
<path d="M9980 6651 c-15 -29 -2 -50 39 -60 49 -13 309 -59 397 -70 90 -11
124 -27 212 -102 78 -66 114 -75 120 -30 8 53 -164 185 -263 201 -33 6 -151
26 -263 45 -112 19 -210 35 -217 35 -8 0 -19 -9 -25 -19z"/>
<path d="M14284 15737 c-16 -14 -26 -33 -26 -48 0 -14 30 -79 66 -145 354
-630 611 -1493 695 -2329 7 -60 14 -123 16 -138 3 -16 1 -27 -3 -25 -5 2 -60
62 -122 133 -62 72 -185 201 -272 288 -152 151 -161 158 -195 155 -68 -6 -69
-10 -103 -420 -16 -202 -30 -383 -30 -402 0 -50 30 -78 77 -74 65 6 69 18 96
346 13 160 27 295 31 300 10 9 148 -139 378 -405 213 -246 226 -256 283 -211
l28 22 -6 140 c-4 78 -16 219 -27 313 -105 918 -351 1735 -717 2386 -77 136
-114 161 -169 114z"/>
<path d="M5023 14178 c-39 -42 -114 -415 -153 -755 -72 -633 -34 -1420 102
-2108 28 -140 36 -164 60 -189 23 -22 34 -27 56 -21 15 3 35 14 44 23 36 37
154 341 243 625 21 65 42 116 48 114 5 -1 77 -122 159 -267 83 -146 157 -273
166 -282 21 -24 77 -23 102 2 11 11 20 33 20 49 0 34 -368 694 -406 729 -54
48 -95 18 -163 -121 -27 -56 -68 -165 -91 -242 -44 -146 -99 -299 -106 -292
-8 7 -53 321 -73 502 -31 282 -41 474 -41 799 0 523 32 803 152 1353 11 50 10
54 -12 78 -30 32 -79 34 -107 3z"/>
<path d="M16683 7945 c-30 -13 -43 -32 -43 -63 0 -8 54 -151 119 -316 259
-655 437 -1164 611 -1746 70 -235 182 -657 205 -769 8 -42 37 -184 65 -316 95
-463 150 -827 186 -1230 31 -361 21 -1006 -20 -1255 -2 -14 -7 -46 -10 -71
-40 -290 -129 -628 -231 -880 -43 -106 -157 -337 -195 -394 -11 -16 -23 -37
-27 -45 -36 -80 -278 -395 -365 -475 -136 -126 -357 -285 -486 -351 -18 -9
-35 -20 -38 -25 -3 -5 63 -9 148 -9 l154 0 125 94 c68 51 165 133 214 181 84
81 98 90 215 142 226 98 418 207 595 337 39 28 75 55 81 61 6 5 33 28 60 50
105 87 244 237 336 360 4 6 18 24 31 40 61 76 210 346 246 446 142 382 194
675 194 1099 1 545 -115 1157 -348 1840 -69 201 -165 453 -175 460 -4 3 -24
46 -45 95 -147 358 -447 976 -661 1360 -217 390 -473 807 -711 1160 -158 233
-170 245 -230 220z m612 -1120 c371 -629 664 -1219 905 -1825 118 -298 260
-713 247 -726 -15 -16 -424 290 -599 448 l-48 43 -55 241 c-132 575 -327 1230
-561 1879 -47 132 -88 249 -91 260 -7 26 60 -80 202 -320z m722 -2456 c60 -45
196 -140 303 -211 l195 -130 23 -81 c28 -102 87 -389 106 -522 32 -214 46
-404 46 -615 0 -243 -11 -375 -45 -565 -30 -163 -115 -445 -134 -445 -3 0 -17
30 -29 68 -13 37 -51 123 -84 192 -98 203 -242 548 -351 840 -35 93 -35 99
-41 285 -12 366 -55 769 -132 1228 -6 33 -4 37 15 37 11 0 69 -37 128 -81z
m57 -1973 c32 -76 97 -225 146 -332 90 -195 135 -312 170 -436 l18 -67 -49
-82 c-136 -224 -319 -421 -553 -596 -129 -97 -390 -252 -402 -240 -3 3 22 46
55 98 75 115 195 349 254 494 132 322 222 697 262 1086 24 235 26 245 35 229
4 -8 33 -77 64 -154z"/>
</g>
</svg>
